%TF.GenerationSoftware,KiCad,Pcbnew,7.0.8*%
%TF.CreationDate,2024-02-12T20:34:51+01:00*%
%TF.ProjectId,tiny-plant-sensor,74696e79-2d70-46c6-916e-742d73656e73,rev?*%
%TF.SameCoordinates,Original*%
%TF.FileFunction,Legend,Top*%
%TF.FilePolarity,Positive*%
%FSLAX46Y46*%
G04 Gerber Fmt 4.6, Leading zero omitted, Abs format (unit mm)*
G04 Created by KiCad (PCBNEW 7.0.8) date 2024-02-12 20:34:51*
%MOMM*%
%LPD*%
G01*
G04 APERTURE LIST*
%ADD10C,0.150000*%
%ADD11C,0.200000*%
%ADD12C,0.120000*%
G04 APERTURE END LIST*
D10*
X93000000Y-90750000D02*
X107500000Y-90750000D01*
D11*
X87963223Y-47840326D02*
X88023700Y-47900802D01*
X88023700Y-47900802D02*
X88084176Y-48082231D01*
X88084176Y-48082231D02*
X88084176Y-48203183D01*
X88084176Y-48203183D02*
X88023700Y-48384612D01*
X88023700Y-48384612D02*
X87902747Y-48505564D01*
X87902747Y-48505564D02*
X87781795Y-48566041D01*
X87781795Y-48566041D02*
X87539890Y-48626517D01*
X87539890Y-48626517D02*
X87358461Y-48626517D01*
X87358461Y-48626517D02*
X87116557Y-48566041D01*
X87116557Y-48566041D02*
X86995604Y-48505564D01*
X86995604Y-48505564D02*
X86874652Y-48384612D01*
X86874652Y-48384612D02*
X86814176Y-48203183D01*
X86814176Y-48203183D02*
X86814176Y-48082231D01*
X86814176Y-48082231D02*
X86874652Y-47900802D01*
X86874652Y-47900802D02*
X86935128Y-47840326D01*
X88084176Y-46570326D02*
X87479414Y-46993660D01*
X88084176Y-47296041D02*
X86814176Y-47296041D01*
X86814176Y-47296041D02*
X86814176Y-46812231D01*
X86814176Y-46812231D02*
X86874652Y-46691279D01*
X86874652Y-46691279D02*
X86935128Y-46630802D01*
X86935128Y-46630802D02*
X87056080Y-46570326D01*
X87056080Y-46570326D02*
X87237509Y-46570326D01*
X87237509Y-46570326D02*
X87358461Y-46630802D01*
X87358461Y-46630802D02*
X87418938Y-46691279D01*
X87418938Y-46691279D02*
X87479414Y-46812231D01*
X87479414Y-46812231D02*
X87479414Y-47296041D01*
X86935128Y-46086517D02*
X86874652Y-46026041D01*
X86874652Y-46026041D02*
X86814176Y-45905088D01*
X86814176Y-45905088D02*
X86814176Y-45602707D01*
X86814176Y-45602707D02*
X86874652Y-45481755D01*
X86874652Y-45481755D02*
X86935128Y-45421279D01*
X86935128Y-45421279D02*
X87056080Y-45360802D01*
X87056080Y-45360802D02*
X87177033Y-45360802D01*
X87177033Y-45360802D02*
X87358461Y-45421279D01*
X87358461Y-45421279D02*
X88084176Y-46146993D01*
X88084176Y-46146993D02*
X88084176Y-45360802D01*
X86814176Y-44574612D02*
X86814176Y-44453659D01*
X86814176Y-44453659D02*
X86874652Y-44332707D01*
X86874652Y-44332707D02*
X86935128Y-44272231D01*
X86935128Y-44272231D02*
X87056080Y-44211755D01*
X87056080Y-44211755D02*
X87297985Y-44151278D01*
X87297985Y-44151278D02*
X87600366Y-44151278D01*
X87600366Y-44151278D02*
X87842271Y-44211755D01*
X87842271Y-44211755D02*
X87963223Y-44272231D01*
X87963223Y-44272231D02*
X88023700Y-44332707D01*
X88023700Y-44332707D02*
X88084176Y-44453659D01*
X88084176Y-44453659D02*
X88084176Y-44574612D01*
X88084176Y-44574612D02*
X88023700Y-44695564D01*
X88023700Y-44695564D02*
X87963223Y-44756040D01*
X87963223Y-44756040D02*
X87842271Y-44816517D01*
X87842271Y-44816517D02*
X87600366Y-44876993D01*
X87600366Y-44876993D02*
X87297985Y-44876993D01*
X87297985Y-44876993D02*
X87056080Y-44816517D01*
X87056080Y-44816517D02*
X86935128Y-44756040D01*
X86935128Y-44756040D02*
X86874652Y-44695564D01*
X86874652Y-44695564D02*
X86814176Y-44574612D01*
X86814176Y-43727945D02*
X86814176Y-42941754D01*
X86814176Y-42941754D02*
X87297985Y-43365088D01*
X87297985Y-43365088D02*
X87297985Y-43183659D01*
X87297985Y-43183659D02*
X87358461Y-43062707D01*
X87358461Y-43062707D02*
X87418938Y-43002231D01*
X87418938Y-43002231D02*
X87539890Y-42941754D01*
X87539890Y-42941754D02*
X87842271Y-42941754D01*
X87842271Y-42941754D02*
X87963223Y-43002231D01*
X87963223Y-43002231D02*
X88023700Y-43062707D01*
X88023700Y-43062707D02*
X88084176Y-43183659D01*
X88084176Y-43183659D02*
X88084176Y-43546516D01*
X88084176Y-43546516D02*
X88023700Y-43667469D01*
X88023700Y-43667469D02*
X87963223Y-43727945D01*
X86935128Y-42457945D02*
X86874652Y-42397469D01*
X86874652Y-42397469D02*
X86814176Y-42276516D01*
X86814176Y-42276516D02*
X86814176Y-41974135D01*
X86814176Y-41974135D02*
X86874652Y-41853183D01*
X86874652Y-41853183D02*
X86935128Y-41792707D01*
X86935128Y-41792707D02*
X87056080Y-41732230D01*
X87056080Y-41732230D02*
X87177033Y-41732230D01*
X87177033Y-41732230D02*
X87358461Y-41792707D01*
X87358461Y-41792707D02*
X88084176Y-42518421D01*
X88084176Y-42518421D02*
X88084176Y-41732230D01*
D10*
X102991541Y-89369819D02*
X103610588Y-89369819D01*
X103610588Y-89369819D02*
X103277255Y-89750771D01*
X103277255Y-89750771D02*
X103420112Y-89750771D01*
X103420112Y-89750771D02*
X103515350Y-89798390D01*
X103515350Y-89798390D02*
X103562969Y-89846009D01*
X103562969Y-89846009D02*
X103610588Y-89941247D01*
X103610588Y-89941247D02*
X103610588Y-90179342D01*
X103610588Y-90179342D02*
X103562969Y-90274580D01*
X103562969Y-90274580D02*
X103515350Y-90322200D01*
X103515350Y-90322200D02*
X103420112Y-90369819D01*
X103420112Y-90369819D02*
X103134398Y-90369819D01*
X103134398Y-90369819D02*
X103039160Y-90322200D01*
X103039160Y-90322200D02*
X102991541Y-90274580D01*
X104515350Y-89369819D02*
X104039160Y-89369819D01*
X104039160Y-89369819D02*
X103991541Y-89846009D01*
X103991541Y-89846009D02*
X104039160Y-89798390D01*
X104039160Y-89798390D02*
X104134398Y-89750771D01*
X104134398Y-89750771D02*
X104372493Y-89750771D01*
X104372493Y-89750771D02*
X104467731Y-89798390D01*
X104467731Y-89798390D02*
X104515350Y-89846009D01*
X104515350Y-89846009D02*
X104562969Y-89941247D01*
X104562969Y-89941247D02*
X104562969Y-90179342D01*
X104562969Y-90179342D02*
X104515350Y-90274580D01*
X104515350Y-90274580D02*
X104467731Y-90322200D01*
X104467731Y-90322200D02*
X104372493Y-90369819D01*
X104372493Y-90369819D02*
X104134398Y-90369819D01*
X104134398Y-90369819D02*
X104039160Y-90322200D01*
X104039160Y-90322200D02*
X103991541Y-90274580D01*
X104991541Y-90369819D02*
X104991541Y-89703152D01*
X104991541Y-89798390D02*
X105039160Y-89750771D01*
X105039160Y-89750771D02*
X105134398Y-89703152D01*
X105134398Y-89703152D02*
X105277255Y-89703152D01*
X105277255Y-89703152D02*
X105372493Y-89750771D01*
X105372493Y-89750771D02*
X105420112Y-89846009D01*
X105420112Y-89846009D02*
X105420112Y-90369819D01*
X105420112Y-89846009D02*
X105467731Y-89750771D01*
X105467731Y-89750771D02*
X105562969Y-89703152D01*
X105562969Y-89703152D02*
X105705826Y-89703152D01*
X105705826Y-89703152D02*
X105801065Y-89750771D01*
X105801065Y-89750771D02*
X105848684Y-89846009D01*
X105848684Y-89846009D02*
X105848684Y-90369819D01*
X106324874Y-90369819D02*
X106324874Y-89703152D01*
X106324874Y-89798390D02*
X106372493Y-89750771D01*
X106372493Y-89750771D02*
X106467731Y-89703152D01*
X106467731Y-89703152D02*
X106610588Y-89703152D01*
X106610588Y-89703152D02*
X106705826Y-89750771D01*
X106705826Y-89750771D02*
X106753445Y-89846009D01*
X106753445Y-89846009D02*
X106753445Y-90369819D01*
X106753445Y-89846009D02*
X106801064Y-89750771D01*
X106801064Y-89750771D02*
X106896302Y-89703152D01*
X106896302Y-89703152D02*
X107039159Y-89703152D01*
X107039159Y-89703152D02*
X107134398Y-89750771D01*
X107134398Y-89750771D02*
X107182017Y-89846009D01*
X107182017Y-89846009D02*
X107182017Y-90369819D01*
X106604977Y-63519567D02*
X106843072Y-64519567D01*
X106843072Y-64519567D02*
X107033548Y-63805281D01*
X107033548Y-63805281D02*
X107224024Y-64519567D01*
X107224024Y-64519567D02*
X107462120Y-63519567D01*
X108271643Y-64519567D02*
X108271643Y-63995757D01*
X108271643Y-63995757D02*
X108224024Y-63900519D01*
X108224024Y-63900519D02*
X108128786Y-63852900D01*
X108128786Y-63852900D02*
X107938310Y-63852900D01*
X107938310Y-63852900D02*
X107843072Y-63900519D01*
X108271643Y-64471948D02*
X108176405Y-64519567D01*
X108176405Y-64519567D02*
X107938310Y-64519567D01*
X107938310Y-64519567D02*
X107843072Y-64471948D01*
X107843072Y-64471948D02*
X107795453Y-64376709D01*
X107795453Y-64376709D02*
X107795453Y-64281471D01*
X107795453Y-64281471D02*
X107843072Y-64186233D01*
X107843072Y-64186233D02*
X107938310Y-64138614D01*
X107938310Y-64138614D02*
X108176405Y-64138614D01*
X108176405Y-64138614D02*
X108271643Y-64090995D01*
X108604977Y-63852900D02*
X108985929Y-63852900D01*
X108747834Y-63519567D02*
X108747834Y-64376709D01*
X108747834Y-64376709D02*
X108795453Y-64471948D01*
X108795453Y-64471948D02*
X108890691Y-64519567D01*
X108890691Y-64519567D02*
X108985929Y-64519567D01*
X109700215Y-64471948D02*
X109604977Y-64519567D01*
X109604977Y-64519567D02*
X109414501Y-64519567D01*
X109414501Y-64519567D02*
X109319263Y-64471948D01*
X109319263Y-64471948D02*
X109271644Y-64376709D01*
X109271644Y-64376709D02*
X109271644Y-63995757D01*
X109271644Y-63995757D02*
X109319263Y-63900519D01*
X109319263Y-63900519D02*
X109414501Y-63852900D01*
X109414501Y-63852900D02*
X109604977Y-63852900D01*
X109604977Y-63852900D02*
X109700215Y-63900519D01*
X109700215Y-63900519D02*
X109747834Y-63995757D01*
X109747834Y-63995757D02*
X109747834Y-64090995D01*
X109747834Y-64090995D02*
X109271644Y-64186233D01*
X110176406Y-64519567D02*
X110176406Y-63852900D01*
X110176406Y-64043376D02*
X110224025Y-63948138D01*
X110224025Y-63948138D02*
X110271644Y-63900519D01*
X110271644Y-63900519D02*
X110366882Y-63852900D01*
X110366882Y-63852900D02*
X110462120Y-63852900D01*
X111557359Y-64519567D02*
X111557359Y-63519567D01*
X111557359Y-63519567D02*
X111890692Y-64233852D01*
X111890692Y-64233852D02*
X112224025Y-63519567D01*
X112224025Y-63519567D02*
X112224025Y-64519567D01*
X113081168Y-64471948D02*
X112985930Y-64519567D01*
X112985930Y-64519567D02*
X112795454Y-64519567D01*
X112795454Y-64519567D02*
X112700216Y-64471948D01*
X112700216Y-64471948D02*
X112652597Y-64376709D01*
X112652597Y-64376709D02*
X112652597Y-63995757D01*
X112652597Y-63995757D02*
X112700216Y-63900519D01*
X112700216Y-63900519D02*
X112795454Y-63852900D01*
X112795454Y-63852900D02*
X112985930Y-63852900D01*
X112985930Y-63852900D02*
X113081168Y-63900519D01*
X113081168Y-63900519D02*
X113128787Y-63995757D01*
X113128787Y-63995757D02*
X113128787Y-64090995D01*
X113128787Y-64090995D02*
X112652597Y-64186233D01*
X113557359Y-64424328D02*
X113604978Y-64471948D01*
X113604978Y-64471948D02*
X113557359Y-64519567D01*
X113557359Y-64519567D02*
X113509740Y-64471948D01*
X113509740Y-64471948D02*
X113557359Y-64424328D01*
X113557359Y-64424328D02*
X113557359Y-64519567D01*
X113557359Y-64138614D02*
X113509740Y-63567186D01*
X113509740Y-63567186D02*
X113557359Y-63519567D01*
X113557359Y-63519567D02*
X113604978Y-63567186D01*
X113604978Y-63567186D02*
X113557359Y-64138614D01*
X113557359Y-64138614D02*
X113557359Y-63519567D01*
X92386197Y-55776011D02*
X93194319Y-54967889D01*
X93194319Y-55776011D02*
X92386197Y-54967889D01*
D12*
%TO.C,D101*%
X111565000Y-62236000D02*
X111565000Y-62080000D01*
X111565000Y-59920000D02*
X111565000Y-59764000D01*
X108332666Y-62078608D02*
G75*
G03*
X111564999Y-62235515I1672334J1078608D01*
G01*
X108963871Y-62079836D02*
G75*
G03*
X111045960Y-62079999I1041129J1079836D01*
G01*
X111045960Y-59920001D02*
G75*
G03*
X108963871Y-59920164I-1040960J-1079999D01*
G01*
X111564999Y-59764485D02*
G75*
G03*
X108332666Y-59921392I-1559999J-1235515D01*
G01*
%TO.C,U101*%
X95487338Y-69270937D02*
X105887338Y-69270937D01*
X105887338Y-69270937D02*
X105887338Y-58990937D01*
X95547338Y-66780937D02*
X105827338Y-66780937D01*
X105827338Y-66780937D02*
X105827338Y-61480937D01*
X95547338Y-65130937D02*
X95547338Y-66780937D01*
X95547338Y-61480937D02*
X95547338Y-63130937D01*
X105827338Y-61480937D02*
X95547338Y-61480937D01*
X95487338Y-58990937D02*
X95487338Y-69270937D01*
X105887338Y-58990937D02*
X95487338Y-58990937D01*
X95547338Y-65130937D02*
G75*
G03*
X95547338Y-63130937I0J1000000D01*
G01*
%TO.C,R101*%
X101328413Y-71993331D02*
X97488413Y-71993331D01*
X101328413Y-70153331D02*
X97488413Y-70153331D01*
%TO.C,BT101*%
X87087654Y-56669705D02*
X91118162Y-52639196D01*
X91330294Y-60912345D02*
X87087654Y-56669705D01*
X91330294Y-60912345D02*
X95360803Y-56881837D01*
X96244686Y-56705061D02*
G75*
G03*
X95360803Y-56881837I-309359J-751300D01*
G01*
X91118162Y-52639196D02*
G75*
G03*
X91294939Y-51755312I-574524J574524D01*
G01*
X109641298Y-38358701D02*
G75*
G03*
X91294940Y-51755312I-8128705J-8128689D01*
G01*
X96244687Y-56705059D02*
G75*
G03*
X109641298Y-38358701I5267922J10217653D01*
G01*
%TO.C,C102*%
X94760000Y-61103733D02*
X94760000Y-61396267D01*
X93740000Y-61103733D02*
X93740000Y-61396267D01*
%TO.C,C101*%
X93008950Y-63488748D02*
X93008950Y-64011252D01*
X91538950Y-63488748D02*
X91538950Y-64011252D01*
%TD*%
M02*
