M48
; DRILL file {KiCad 7.0.8} date Mon 12 Feb 2024 08:34:55 PM CET
; FORMAT={-:-/ absolute / metric / decimal}
; #@! TF.CreationDate,2024-02-12T20:34:55+01:00
; #@! TF.GenerationSoftware,Kicad,Pcbnew,7.0.8
; #@! TF.FileFunction,MixedPlating,1,2
FMAT,2
METRIC
; #@! TA.AperFunction,Plated,PTH,ViaDrill
T1C0.250
; #@! TA.AperFunction,Plated,PTH,ComponentDrill
T2C0.700
; #@! TA.AperFunction,Plated,PTH,ComponentDrill
T3C0.800
; #@! TA.AperFunction,Plated,PTH,ComponentDrill
T4C0.900
; #@! TA.AperFunction,Plated,PTH,ComponentDrill
T5C1.500
%
G90
G05
T1
X87.0Y-36.0
X87.0Y-51.0
X87.0Y-54.0
X87.0Y-57.0
X87.0Y-60.0
X87.0Y-63.0
X87.0Y-66.0
X90.0Y-51.0
X90.0Y-63.0
X90.0Y-66.0
X90.0Y-69.0
X93.0Y-51.0
X93.0Y-66.0
X93.0Y-69.0
X93.0Y-71.0
X96.0Y-51.0
X99.0Y-36.0
X99.0Y-51.0
X102.0Y-36.0
X102.0Y-39.0
X102.0Y-42.0
X102.0Y-45.0
X102.0Y-48.0
X102.0Y-51.0
X102.0Y-54.0
X102.0Y-57.0
X105.0Y-36.0
X105.0Y-39.0
X105.0Y-48.0
X105.0Y-51.0
X105.0Y-54.0
X105.0Y-57.0
X105.0Y-66.0
X105.0Y-71.0
X108.0Y-36.0
X108.0Y-39.0
X108.0Y-42.0
X108.0Y-45.0
X108.0Y-48.0
X108.0Y-51.0
X108.0Y-54.0
X108.0Y-57.0
X108.0Y-66.0
X108.0Y-69.0
X108.0Y-71.0
X111.0Y-36.0
X111.0Y-39.0
X111.0Y-42.0
X111.0Y-45.0
X111.0Y-48.0
X111.0Y-51.0
X111.0Y-54.0
X111.0Y-57.0
X111.0Y-66.0
X111.0Y-69.0
X114.0Y-36.0
X114.0Y-39.0
X114.0Y-42.0
X114.0Y-45.0
X114.0Y-48.0
X114.0Y-51.0
X114.0Y-54.0
X114.0Y-57.0
X114.0Y-60.0
X114.0Y-63.0
T2
X96.868Y-71.073
X101.948Y-71.073
T3
X96.877Y-60.321
X96.877Y-67.941
X99.417Y-60.321
X99.417Y-67.941
X101.957Y-60.321
X101.957Y-67.941
X104.497Y-60.321
X104.497Y-67.941
T4
X108.735Y-61.0
X111.275Y-61.0
T5
X90.765Y-57.235
X105.253Y-42.747
T0
M30
