%TF.GenerationSoftware,KiCad,Pcbnew,7.0.8*%
%TF.CreationDate,2024-02-12T20:34:51+01:00*%
%TF.ProjectId,tiny-plant-sensor,74696e79-2d70-46c6-916e-742d73656e73,rev?*%
%TF.SameCoordinates,Original*%
%TF.FileFunction,Copper,L1,Top*%
%TF.FilePolarity,Positive*%
%FSLAX46Y46*%
G04 Gerber Fmt 4.6, Leading zero omitted, Abs format (unit mm)*
G04 Created by KiCad (PCBNEW 7.0.8) date 2024-02-12 20:34:51*
%MOMM*%
%LPD*%
G01*
G04 APERTURE LIST*
G04 Aperture macros list*
%AMRoundRect*
0 Rectangle with rounded corners*
0 $1 Rounding radius*
0 $2 $3 $4 $5 $6 $7 $8 $9 X,Y pos of 4 corners*
0 Add a 4 corners polygon primitive as box body*
4,1,4,$2,$3,$4,$5,$6,$7,$8,$9,$2,$3,0*
0 Add four circle primitives for the rounded corners*
1,1,$1+$1,$2,$3*
1,1,$1+$1,$4,$5*
1,1,$1+$1,$6,$7*
1,1,$1+$1,$8,$9*
0 Add four rect primitives between the rounded corners*
20,1,$1+$1,$2,$3,$4,$5,0*
20,1,$1+$1,$4,$5,$6,$7,0*
20,1,$1+$1,$6,$7,$8,$9,0*
20,1,$1+$1,$8,$9,$2,$3,0*%
%AMRotRect*
0 Rectangle, with rotation*
0 The origin of the aperture is its center*
0 $1 length*
0 $2 width*
0 $3 Rotation angle, in degrees counterclockwise*
0 Add horizontal line*
21,1,$1,$2,0,0,$3*%
G04 Aperture macros list end*
%TA.AperFunction,ComponentPad*%
%ADD10R,1.800000X1.800000*%
%TD*%
%TA.AperFunction,ComponentPad*%
%ADD11C,1.800000*%
%TD*%
%TA.AperFunction,ComponentPad*%
%ADD12R,1.600000X1.600000*%
%TD*%
%TA.AperFunction,ComponentPad*%
%ADD13O,1.600000X1.600000*%
%TD*%
%TA.AperFunction,ComponentPad*%
%ADD14C,1.400000*%
%TD*%
%TA.AperFunction,ComponentPad*%
%ADD15O,1.400000X1.400000*%
%TD*%
%TA.AperFunction,ComponentPad*%
%ADD16RotRect,3.000000X3.000000X45.000000*%
%TD*%
%TA.AperFunction,ComponentPad*%
%ADD17C,3.000000*%
%TD*%
%TA.AperFunction,SMDPad,CuDef*%
%ADD18RoundRect,0.237500X-0.237500X0.300000X-0.237500X-0.300000X0.237500X-0.300000X0.237500X0.300000X0*%
%TD*%
%TA.AperFunction,SMDPad,CuDef*%
%ADD19RoundRect,0.250000X-0.475000X0.337500X-0.475000X-0.337500X0.475000X-0.337500X0.475000X0.337500X0*%
%TD*%
%TA.AperFunction,ViaPad*%
%ADD20C,0.500000*%
%TD*%
%TA.AperFunction,Conductor*%
%ADD21C,0.250000*%
%TD*%
%TA.AperFunction,Conductor*%
%ADD22C,0.300000*%
%TD*%
G04 APERTURE END LIST*
D10*
%TO.P,D101,1,K*%
%TO.N,GND*%
X111275000Y-61000000D03*
D11*
%TO.P,D101,2,A*%
%TO.N,Net-(D101-A)*%
X108735000Y-61000000D03*
%TD*%
D12*
%TO.P,U101,1,~{RESET}/PB5*%
%TO.N,/SENSE*%
X96877338Y-67940937D03*
D13*
%TO.P,U101,2,XTAL1/PB3*%
%TO.N,unconnected-(U101-XTAL1{slash}PB3-Pad2)*%
X99417338Y-67940937D03*
%TO.P,U101,3,XTAL2/PB4*%
%TO.N,Net-(U101-XTAL2{slash}PB4)*%
X101957338Y-67940937D03*
%TO.P,U101,4,GND*%
%TO.N,GND*%
X104497338Y-67940937D03*
%TO.P,U101,5,AREF/PB0*%
%TO.N,Net-(D101-A)*%
X104497338Y-60320937D03*
%TO.P,U101,6,PB1*%
%TO.N,unconnected-(U101-PB1-Pad6)*%
X101957338Y-60320937D03*
%TO.P,U101,7,PB2*%
%TO.N,unconnected-(U101-PB2-Pad7)*%
X99417338Y-60320937D03*
%TO.P,U101,8,VCC*%
%TO.N,+3V0*%
X96877338Y-60320937D03*
%TD*%
D14*
%TO.P,R101,1*%
%TO.N,Net-(U101-XTAL2{slash}PB4)*%
X101948413Y-71073331D03*
D15*
%TO.P,R101,2*%
%TO.N,/SENSE*%
X96868413Y-71073331D03*
%TD*%
D16*
%TO.P,BT101,1,+*%
%TO.N,+3V0*%
X90764609Y-57235390D03*
D17*
%TO.P,BT101,2,-*%
%TO.N,GND*%
X105253227Y-42746772D03*
%TD*%
D18*
%TO.P,C102,1*%
%TO.N,+3V0*%
X94250000Y-60387500D03*
%TO.P,C102,2*%
%TO.N,GND*%
X94250000Y-62112500D03*
%TD*%
D19*
%TO.P,C101,1*%
%TO.N,+3V0*%
X92273950Y-62712500D03*
%TO.P,C101,2*%
%TO.N,GND*%
X92273950Y-64787500D03*
%TD*%
D20*
%TO.N,GND*%
X102000000Y-42000000D03*
X108000000Y-42000000D03*
X111000000Y-42000000D03*
X114000000Y-42000000D03*
X105000000Y-66000000D03*
X90000000Y-63000000D03*
X93000000Y-66000000D03*
X105000000Y-71000000D03*
X108000000Y-66000000D03*
X114000000Y-63000000D03*
X114000000Y-60000000D03*
X111000000Y-69000000D03*
X111000000Y-66000000D03*
X108000000Y-71000000D03*
X108000000Y-69000000D03*
X93000000Y-71000000D03*
X93000000Y-69000000D03*
X90000000Y-69000000D03*
X90000000Y-66000000D03*
X87000000Y-63000000D03*
X87000000Y-66000000D03*
X87000000Y-60000000D03*
X87000000Y-54000000D03*
X87000000Y-57000000D03*
X105000000Y-57000000D03*
X102000000Y-57000000D03*
X108000000Y-57000000D03*
X114000000Y-57000000D03*
X111000000Y-57000000D03*
X105000000Y-54000000D03*
X102000000Y-54000000D03*
X108000000Y-54000000D03*
X114000000Y-54000000D03*
X111000000Y-54000000D03*
X105000000Y-39000000D03*
X102000000Y-39000000D03*
X108000000Y-39000000D03*
X114000000Y-39000000D03*
X111000000Y-39000000D03*
X102000000Y-45000000D03*
X108000000Y-45000000D03*
X114000000Y-45000000D03*
X111000000Y-45000000D03*
X105000000Y-48000000D03*
X102000000Y-48000000D03*
X108000000Y-48000000D03*
X114000000Y-48000000D03*
X111000000Y-48000000D03*
X105000000Y-51000000D03*
X102000000Y-51000000D03*
X108000000Y-51000000D03*
X114000000Y-51000000D03*
X111000000Y-51000000D03*
X99000000Y-51000000D03*
X96000000Y-51000000D03*
X93000000Y-51000000D03*
X90000000Y-51000000D03*
X87000000Y-51000000D03*
X87000000Y-36000000D03*
X99000000Y-36000000D03*
X102000000Y-36000000D03*
X105000000Y-36000000D03*
X108000000Y-36000000D03*
X111000000Y-36000000D03*
X114000000Y-36000000D03*
%TD*%
D21*
%TO.N,Net-(D101-A)*%
X104497338Y-60320937D02*
X106820937Y-60320937D01*
X106820937Y-60320937D02*
X107500000Y-61000000D01*
X107500000Y-61000000D02*
X108735000Y-61000000D01*
D22*
%TO.N,Net-(U101-XTAL2{slash}PB4)*%
X101957338Y-71064406D02*
X101948413Y-71073331D01*
X101957338Y-67940937D02*
X101957338Y-71064406D01*
%TO.N,/SENSE*%
X100000000Y-127250000D02*
X100250000Y-127500000D01*
X96877338Y-67940937D02*
X96877338Y-71064406D01*
X96868413Y-77368413D02*
X100000000Y-80500000D01*
X96877338Y-71064406D02*
X96868413Y-71073331D01*
X96868413Y-71073331D02*
X96868413Y-77368413D01*
X100000000Y-80500000D02*
X100000000Y-127250000D01*
%TD*%
%TA.AperFunction,Conductor*%
%TO.N,+3V0*%
G36*
X90859962Y-53971583D02*
G01*
X90897529Y-53981649D01*
X90981878Y-54016587D01*
X91015562Y-54036035D01*
X91099673Y-54100576D01*
X91107008Y-54107008D01*
X95750000Y-58750000D01*
X97863270Y-58750000D01*
X97886579Y-58751834D01*
X97967572Y-58764662D01*
X98011907Y-58779068D01*
X98074391Y-58810905D01*
X98112106Y-58838306D01*
X98161693Y-58887893D01*
X98189094Y-58925608D01*
X98220931Y-58988092D01*
X98235336Y-59032426D01*
X98248165Y-59113419D01*
X98250000Y-59136729D01*
X98250000Y-61363270D01*
X98248165Y-61386580D01*
X98235336Y-61467573D01*
X98220931Y-61511907D01*
X98189094Y-61574391D01*
X98161693Y-61612106D01*
X98112106Y-61661693D01*
X98074391Y-61689094D01*
X98011907Y-61720931D01*
X97967573Y-61735336D01*
X97886580Y-61748165D01*
X97863270Y-61750000D01*
X95386730Y-61750000D01*
X95363420Y-61748165D01*
X95282426Y-61735336D01*
X95238092Y-61720931D01*
X95175608Y-61689094D01*
X95137893Y-61661693D01*
X95088306Y-61612106D01*
X95060905Y-61574391D01*
X95029068Y-61511907D01*
X95014662Y-61467572D01*
X95000001Y-61375000D01*
X95000000Y-61374993D01*
X95000000Y-61000000D01*
X94625000Y-61000000D01*
X94624995Y-61000000D01*
X93926771Y-61000000D01*
X93750000Y-61000000D01*
X93625005Y-61124994D01*
X93625001Y-61124998D01*
X93624998Y-61125001D01*
X93624994Y-61125005D01*
X93500000Y-61250000D01*
X93500000Y-61426771D01*
X93500000Y-61617271D01*
X93489613Y-61671929D01*
X93484882Y-61683925D01*
X93474500Y-61770381D01*
X93474500Y-62454618D01*
X93484882Y-62541073D01*
X93484882Y-62541075D01*
X93484883Y-62541077D01*
X93489610Y-62553065D01*
X93500000Y-62607727D01*
X93500000Y-63235325D01*
X93497137Y-63264393D01*
X93486752Y-63316602D01*
X93464502Y-63370317D01*
X93443240Y-63402136D01*
X93402136Y-63443240D01*
X93370317Y-63464502D01*
X93316602Y-63486752D01*
X93264393Y-63497137D01*
X93235325Y-63500000D01*
X93000000Y-63500000D01*
X91500000Y-63500000D01*
X91264675Y-63500000D01*
X91235607Y-63497137D01*
X91183397Y-63486752D01*
X91129684Y-63464502D01*
X91117603Y-63456431D01*
X91097863Y-63443240D01*
X91056759Y-63402136D01*
X91048831Y-63390272D01*
X91035495Y-63370313D01*
X91013248Y-63316606D01*
X91002861Y-63264385D01*
X91000000Y-63235325D01*
X91000000Y-61207107D01*
X91000000Y-61000000D01*
X90570937Y-60570937D01*
X95855927Y-60570937D01*
X95902569Y-60724696D01*
X95902572Y-60724703D01*
X96000063Y-60907098D01*
X96000068Y-60907105D01*
X96131283Y-61066991D01*
X96291169Y-61198206D01*
X96291176Y-61198211D01*
X96473571Y-61295702D01*
X96473578Y-61295705D01*
X96627338Y-61342347D01*
X96627338Y-60636623D01*
X96639293Y-60648578D01*
X96752190Y-60706102D01*
X96845857Y-60720937D01*
X96908819Y-60720937D01*
X97002486Y-60706102D01*
X97115383Y-60648578D01*
X97127338Y-60636623D01*
X97127338Y-61342346D01*
X97281097Y-61295705D01*
X97281104Y-61295702D01*
X97463499Y-61198211D01*
X97463506Y-61198206D01*
X97623392Y-61066991D01*
X97754607Y-60907105D01*
X97754612Y-60907098D01*
X97852103Y-60724703D01*
X97852106Y-60724696D01*
X97898749Y-60570937D01*
X97193024Y-60570937D01*
X97204979Y-60558982D01*
X97262503Y-60446085D01*
X97282324Y-60320937D01*
X97262503Y-60195789D01*
X97204979Y-60082892D01*
X97193024Y-60070937D01*
X97898748Y-60070937D01*
X97852106Y-59917177D01*
X97852103Y-59917170D01*
X97754612Y-59734775D01*
X97754607Y-59734768D01*
X97623392Y-59574882D01*
X97463506Y-59443667D01*
X97463498Y-59443662D01*
X97281105Y-59346171D01*
X97281100Y-59346169D01*
X97127338Y-59299524D01*
X97127338Y-60005251D01*
X97115383Y-59993296D01*
X97002486Y-59935772D01*
X96908819Y-59920937D01*
X96845857Y-59920937D01*
X96752190Y-59935772D01*
X96639293Y-59993296D01*
X96627338Y-60005251D01*
X96627338Y-59299524D01*
X96473575Y-59346169D01*
X96473570Y-59346171D01*
X96291177Y-59443662D01*
X96291169Y-59443667D01*
X96131283Y-59574882D01*
X96000068Y-59734768D01*
X96000063Y-59734775D01*
X95902572Y-59917170D01*
X95902569Y-59917177D01*
X95855927Y-60070937D01*
X96561652Y-60070937D01*
X96549697Y-60082892D01*
X96492173Y-60195789D01*
X96472352Y-60320937D01*
X96492173Y-60446085D01*
X96549697Y-60558982D01*
X96561652Y-60570937D01*
X95855927Y-60570937D01*
X90570937Y-60570937D01*
X87607008Y-57607008D01*
X87600576Y-57599673D01*
X87536035Y-57515562D01*
X87516587Y-57481877D01*
X87489237Y-57415848D01*
X87481649Y-57397529D01*
X87471584Y-57359967D01*
X87470807Y-57354064D01*
X87479045Y-57291470D01*
X88343288Y-57291470D01*
X88383804Y-57396053D01*
X88399479Y-57415844D01*
X89315040Y-58331405D01*
X90087412Y-57559031D01*
X90110668Y-57612943D01*
X90215365Y-57753575D01*
X90349671Y-57866272D01*
X90441274Y-57912276D01*
X89668593Y-58684957D01*
X90584150Y-59600514D01*
X90603943Y-59616193D01*
X90708529Y-59656711D01*
X90820689Y-59656711D01*
X90925272Y-59616194D01*
X90945063Y-59600519D01*
X91860624Y-58684958D01*
X91090554Y-57914888D01*
X91103500Y-57910177D01*
X91249982Y-57813835D01*
X91370297Y-57686308D01*
X91443056Y-57560284D01*
X92214177Y-58331405D01*
X93129733Y-57415848D01*
X93129733Y-57415847D01*
X93145412Y-57396055D01*
X93185930Y-57291470D01*
X93185930Y-57179309D01*
X93145413Y-57074726D01*
X93129738Y-57054935D01*
X92214177Y-56139374D01*
X91441804Y-56911746D01*
X91418550Y-56857837D01*
X91313853Y-56717205D01*
X91179547Y-56604508D01*
X91087941Y-56558502D01*
X91860624Y-55785821D01*
X90945067Y-54870265D01*
X90925274Y-54854586D01*
X90820689Y-54814069D01*
X90708529Y-54814069D01*
X90603945Y-54854585D01*
X90584154Y-54870260D01*
X89668593Y-55785821D01*
X90438663Y-56555891D01*
X90425718Y-56560603D01*
X90279236Y-56656945D01*
X90158921Y-56784472D01*
X90086161Y-56910495D01*
X89315040Y-56139374D01*
X88399484Y-57054931D01*
X88399484Y-57054932D01*
X88383805Y-57074724D01*
X88343288Y-57179309D01*
X88343288Y-57291470D01*
X87479045Y-57291470D01*
X87480870Y-57277602D01*
X87536330Y-57143709D01*
X87555250Y-57000000D01*
X87555249Y-56999998D01*
X87556491Y-56990570D01*
X87586004Y-56919316D01*
X87600587Y-56900311D01*
X87606999Y-56893000D01*
X90392999Y-54107000D01*
X90400321Y-54100580D01*
X90484441Y-54036032D01*
X90518118Y-54016589D01*
X90602472Y-53981648D01*
X90640035Y-53971584D01*
X90730555Y-53959667D01*
X90769445Y-53959667D01*
X90859962Y-53971583D01*
G37*
%TD.AperFunction*%
%TD*%
%TA.AperFunction,Conductor*%
%TO.N,/SENSE*%
G36*
X101751735Y-126000098D02*
G01*
X101908642Y-126008909D01*
X102082425Y-126018668D01*
X102089315Y-126019444D01*
X102365833Y-126066426D01*
X102414125Y-126074632D01*
X102420909Y-126076180D01*
X102737491Y-126167386D01*
X102744055Y-126169683D01*
X103048442Y-126295763D01*
X103054690Y-126298773D01*
X103343051Y-126458144D01*
X103348929Y-126461837D01*
X103617634Y-126652495D01*
X103623061Y-126656822D01*
X103868721Y-126876358D01*
X103873641Y-126881278D01*
X104093177Y-127126938D01*
X104097506Y-127132367D01*
X104288158Y-127401065D01*
X104291855Y-127406948D01*
X104451222Y-127695300D01*
X104454241Y-127701569D01*
X104580315Y-128005941D01*
X104582613Y-128012508D01*
X104673819Y-128329090D01*
X104675367Y-128335874D01*
X104730553Y-128660670D01*
X104731332Y-128667585D01*
X104749902Y-128998264D01*
X104750000Y-129001741D01*
X104750000Y-146998258D01*
X104749902Y-147001735D01*
X104731332Y-147332414D01*
X104730553Y-147339329D01*
X104675367Y-147664125D01*
X104673819Y-147670909D01*
X104582613Y-147987491D01*
X104580315Y-147994058D01*
X104454241Y-148298430D01*
X104451222Y-148304699D01*
X104291855Y-148593051D01*
X104288153Y-148598943D01*
X104097515Y-148867621D01*
X104093177Y-148873061D01*
X103873641Y-149118721D01*
X103868721Y-149123641D01*
X103623061Y-149343177D01*
X103617621Y-149347515D01*
X103348943Y-149538153D01*
X103343051Y-149541855D01*
X103054699Y-149701222D01*
X103048430Y-149704241D01*
X102744058Y-149830315D01*
X102737491Y-149832613D01*
X102420909Y-149923819D01*
X102414125Y-149925367D01*
X102089329Y-149980553D01*
X102082414Y-149981332D01*
X101751735Y-149999902D01*
X101748258Y-150000000D01*
X98751742Y-150000000D01*
X98748265Y-149999902D01*
X98417585Y-149981332D01*
X98410670Y-149980553D01*
X98085874Y-149925367D01*
X98079090Y-149923819D01*
X97762508Y-149832613D01*
X97755941Y-149830315D01*
X97563208Y-149750483D01*
X97451565Y-149704239D01*
X97445300Y-149701222D01*
X97156948Y-149541855D01*
X97151065Y-149538158D01*
X96882367Y-149347506D01*
X96876938Y-149343177D01*
X96631278Y-149123641D01*
X96626358Y-149118721D01*
X96406822Y-148873061D01*
X96402495Y-148867634D01*
X96211837Y-148598929D01*
X96208144Y-148593051D01*
X96048773Y-148304690D01*
X96045763Y-148298442D01*
X95919683Y-147994055D01*
X95917386Y-147987491D01*
X95826180Y-147670909D01*
X95824632Y-147664125D01*
X95816426Y-147615833D01*
X95769444Y-147339315D01*
X95768668Y-147332425D01*
X95758909Y-147158642D01*
X95750098Y-147001735D01*
X95750000Y-146998258D01*
X95750000Y-129001741D01*
X95750098Y-128998264D01*
X95758035Y-128856916D01*
X95768668Y-128667572D01*
X95769444Y-128660686D01*
X95824632Y-128335873D01*
X95826180Y-128329090D01*
X95917386Y-128012508D01*
X95919680Y-128005950D01*
X96045766Y-127701550D01*
X96048769Y-127695315D01*
X96208149Y-127406939D01*
X96211832Y-127401077D01*
X96402501Y-127132355D01*
X96406811Y-127126950D01*
X96626360Y-126881275D01*
X96631278Y-126876358D01*
X96876950Y-126656811D01*
X96882355Y-126652501D01*
X97151077Y-126461832D01*
X97156939Y-126458149D01*
X97445315Y-126298769D01*
X97451550Y-126295766D01*
X97755950Y-126169680D01*
X97762502Y-126167387D01*
X98079094Y-126076179D01*
X98085874Y-126074632D01*
X98410686Y-126019444D01*
X98417572Y-126018668D01*
X98598408Y-126008513D01*
X98748265Y-126000098D01*
X98751742Y-126000000D01*
X101748258Y-126000000D01*
X101751735Y-126000098D01*
G37*
%TD.AperFunction*%
%TD*%
%TA.AperFunction,Conductor*%
%TO.N,GND*%
G36*
X96467913Y-77431842D02*
G01*
X96467914Y-77431852D01*
X96474759Y-77452920D01*
X96479300Y-77471831D01*
X96482767Y-77493717D01*
X96482768Y-77493720D01*
X96492825Y-77513458D01*
X96500270Y-77531431D01*
X96507117Y-77552503D01*
X96520139Y-77570427D01*
X96530303Y-77587013D01*
X96540363Y-77606755D01*
X96561277Y-77627669D01*
X96561306Y-77627700D01*
X99563181Y-80629574D01*
X99596666Y-80690897D01*
X99599500Y-80717255D01*
X99599500Y-124870500D01*
X99579815Y-124937539D01*
X99527011Y-124983294D01*
X99475500Y-124994500D01*
X98737575Y-124994500D01*
X98705905Y-124995393D01*
X98347109Y-125015541D01*
X98318992Y-125017913D01*
X98284078Y-125021846D01*
X98260100Y-125025232D01*
X98256157Y-125025789D01*
X97903559Y-125085698D01*
X97875928Y-125091193D01*
X97841651Y-125099015D01*
X97814306Y-125106067D01*
X97579012Y-125173854D01*
X97470582Y-125205092D01*
X97443684Y-125213666D01*
X97410509Y-125225276D01*
X97384180Y-125235326D01*
X97053723Y-125372205D01*
X97039486Y-125378576D01*
X97027953Y-125383738D01*
X96996305Y-125398981D01*
X96971268Y-125411916D01*
X96658225Y-125584929D01*
X96633949Y-125599249D01*
X96604203Y-125617937D01*
X96580733Y-125633619D01*
X96289006Y-125840611D01*
X96266485Y-125857559D01*
X96239027Y-125879454D01*
X96217460Y-125897665D01*
X95950768Y-126135997D01*
X95930309Y-126155337D01*
X95905444Y-126180196D01*
X95886032Y-126200728D01*
X95647664Y-126467461D01*
X95629454Y-126489027D01*
X95607559Y-126516485D01*
X95590611Y-126539006D01*
X95383619Y-126830733D01*
X95367937Y-126854203D01*
X95349249Y-126883949D01*
X95334929Y-126908225D01*
X95169985Y-127206668D01*
X95161916Y-127221268D01*
X95148981Y-127246305D01*
X95133738Y-127277953D01*
X95122205Y-127303723D01*
X95122193Y-127303753D01*
X94985327Y-127634181D01*
X94985312Y-127634217D01*
X94975236Y-127660616D01*
X94963630Y-127693795D01*
X94955081Y-127720622D01*
X94856072Y-128064289D01*
X94849024Y-128091613D01*
X94841200Y-128125896D01*
X94835700Y-128153548D01*
X94775791Y-128506149D01*
X94775789Y-128506158D01*
X94771846Y-128534078D01*
X94767913Y-128568992D01*
X94765541Y-128597109D01*
X94745393Y-128955904D01*
X94744500Y-128987574D01*
X94744500Y-147012425D01*
X94745393Y-147044095D01*
X94765540Y-147402871D01*
X94767907Y-147430956D01*
X94771442Y-147462340D01*
X94771841Y-147465876D01*
X94775787Y-147493829D01*
X94835699Y-147846443D01*
X94841195Y-147874079D01*
X94849018Y-147908362D01*
X94856070Y-147935702D01*
X94955090Y-148279407D01*
X94963658Y-148306290D01*
X94975272Y-148339476D01*
X94981488Y-148355763D01*
X94985326Y-148365817D01*
X95012683Y-148431863D01*
X95122212Y-148696291D01*
X95133765Y-148722105D01*
X95149017Y-148753764D01*
X95149018Y-148753765D01*
X95161931Y-148778758D01*
X95246499Y-148931772D01*
X95334922Y-149091762D01*
X95349241Y-149116037D01*
X95367940Y-149145799D01*
X95383624Y-149169274D01*
X95572068Y-149434858D01*
X95590597Y-149460972D01*
X95607525Y-149483468D01*
X95629436Y-149510949D01*
X95647665Y-149532540D01*
X95886012Y-149799248D01*
X95905389Y-149819744D01*
X95930255Y-149844610D01*
X95950751Y-149863987D01*
X96217447Y-150102322D01*
X96217451Y-150102326D01*
X96239024Y-150120541D01*
X96266506Y-150142455D01*
X96289021Y-150159399D01*
X96580700Y-150366357D01*
X96604129Y-150382012D01*
X96633894Y-150400717D01*
X96658212Y-150415063D01*
X96971265Y-150588082D01*
X96996323Y-150601027D01*
X96996331Y-150601031D01*
X97028007Y-150616285D01*
X97053750Y-150627804D01*
X97384180Y-150764672D01*
X97410523Y-150774728D01*
X97422137Y-150778791D01*
X97443713Y-150786342D01*
X97470594Y-150794910D01*
X97814297Y-150893929D01*
X97841637Y-150900981D01*
X97875920Y-150908804D01*
X97903555Y-150914300D01*
X98256149Y-150974209D01*
X98284089Y-150978153D01*
X98301561Y-150980121D01*
X98319033Y-150982090D01*
X98347130Y-150984460D01*
X98705904Y-151004607D01*
X98737575Y-151005500D01*
X101762425Y-151005500D01*
X101794096Y-151004607D01*
X102152869Y-150984460D01*
X102180966Y-150982090D01*
X102198437Y-150980121D01*
X102215910Y-150978153D01*
X102243850Y-150974209D01*
X102596444Y-150914300D01*
X102624079Y-150908804D01*
X102658362Y-150900981D01*
X102685702Y-150893929D01*
X103029405Y-150794910D01*
X103056286Y-150786342D01*
X103089475Y-150774728D01*
X103115818Y-150764672D01*
X103446246Y-150627806D01*
X103471994Y-150616284D01*
X103503678Y-150601027D01*
X103528736Y-150588080D01*
X103604400Y-150546262D01*
X104525110Y-150546262D01*
X105239139Y-151260291D01*
X106301214Y-150198216D01*
X105537856Y-149434858D01*
X105526556Y-149451772D01*
X105311514Y-149754843D01*
X105286166Y-149788527D01*
X105255532Y-149826942D01*
X105228309Y-149859181D01*
X104980660Y-150136301D01*
X104951685Y-150166947D01*
X104916947Y-150201685D01*
X104886301Y-150230660D01*
X104609181Y-150478309D01*
X104576942Y-150505532D01*
X104538527Y-150536166D01*
X104525110Y-150546262D01*
X103604400Y-150546262D01*
X103841769Y-150415073D01*
X103866053Y-150400748D01*
X103866102Y-150400717D01*
X103895829Y-150382040D01*
X103919292Y-150366363D01*
X104210972Y-150159404D01*
X104233497Y-150142453D01*
X104260990Y-150120529D01*
X104282553Y-150102322D01*
X104549248Y-149863987D01*
X104569744Y-149844610D01*
X104594610Y-149819744D01*
X104613987Y-149799248D01*
X104852322Y-149532553D01*
X104870529Y-149510990D01*
X104892453Y-149483497D01*
X104909404Y-149460972D01*
X104927933Y-149434858D01*
X105116363Y-149169292D01*
X105132040Y-149145829D01*
X105150748Y-149116053D01*
X105165073Y-149091769D01*
X105224164Y-148984852D01*
X105792128Y-148984852D01*
X106653352Y-149846076D01*
X107498719Y-149000709D01*
X107498618Y-148567192D01*
X106653352Y-147721926D01*
X106049926Y-148325352D01*
X106021513Y-148423981D01*
X106008701Y-148464179D01*
X105992471Y-148510556D01*
X105977435Y-148549943D01*
X105835224Y-148893277D01*
X105817998Y-148931772D01*
X105796678Y-148976048D01*
X105792128Y-148984852D01*
X105224164Y-148984852D01*
X105338080Y-148778736D01*
X105350982Y-148753765D01*
X105351027Y-148753678D01*
X105366284Y-148721994D01*
X105377806Y-148696246D01*
X105473930Y-148464179D01*
X105514672Y-148365818D01*
X105524728Y-148339475D01*
X105536342Y-148306286D01*
X105544910Y-148279405D01*
X105643929Y-147935702D01*
X105650981Y-147908362D01*
X105658804Y-147874079D01*
X105664300Y-147846444D01*
X105724209Y-147493850D01*
X105728153Y-147465910D01*
X105732090Y-147430965D01*
X105734460Y-147402868D01*
X105754607Y-147044096D01*
X105755500Y-147012425D01*
X105755500Y-146617797D01*
X106253500Y-146617797D01*
X106653352Y-147017649D01*
X107498064Y-146172937D01*
X107497963Y-145738110D01*
X106653353Y-144893500D01*
X106253500Y-145293353D01*
X106253500Y-146617797D01*
X105755500Y-146617797D01*
X105755500Y-143789370D01*
X106253500Y-143789370D01*
X106653352Y-144189222D01*
X107497409Y-143345165D01*
X107497307Y-142909027D01*
X106653353Y-142065073D01*
X106253500Y-142464926D01*
X106253500Y-143789370D01*
X105755500Y-143789370D01*
X105755500Y-140960943D01*
X106253500Y-140960943D01*
X106653352Y-141360795D01*
X107496754Y-140517393D01*
X107496652Y-140079945D01*
X106653353Y-139236646D01*
X106253500Y-139636499D01*
X106253500Y-140960943D01*
X105755500Y-140960943D01*
X105755500Y-138132516D01*
X106253500Y-138132516D01*
X106653352Y-138532368D01*
X107496100Y-137689620D01*
X107495997Y-137250863D01*
X106653353Y-136408219D01*
X106253500Y-136808072D01*
X106253500Y-138132516D01*
X105755500Y-138132516D01*
X105755500Y-135304089D01*
X106253500Y-135304089D01*
X106653352Y-135703941D01*
X107495445Y-134861848D01*
X107495342Y-134421781D01*
X106653353Y-133579792D01*
X106253500Y-133979645D01*
X106253500Y-135304089D01*
X105755500Y-135304089D01*
X105755500Y-132475661D01*
X106253500Y-132475661D01*
X106653353Y-132875514D01*
X107494790Y-132034076D01*
X107494687Y-131592699D01*
X106653353Y-130751365D01*
X106253500Y-131151218D01*
X106253500Y-132475661D01*
X105755500Y-132475661D01*
X105755500Y-128987574D01*
X105754607Y-128955903D01*
X105734460Y-128597131D01*
X105732090Y-128569034D01*
X105728153Y-128534089D01*
X105724209Y-128506149D01*
X105701087Y-128370065D01*
X106206223Y-128370065D01*
X106216342Y-128429617D01*
X106222241Y-128471394D01*
X106227741Y-128520223D01*
X106231284Y-128562237D01*
X106252213Y-128934919D01*
X106253500Y-128980554D01*
X106253500Y-129647234D01*
X106653352Y-130047086D01*
X107494135Y-129206303D01*
X107494032Y-128763616D01*
X106653352Y-127922937D01*
X106206223Y-128370065D01*
X105701087Y-128370065D01*
X105664300Y-128153555D01*
X105658804Y-128125920D01*
X105650981Y-128091637D01*
X105643929Y-128064297D01*
X105544910Y-127720594D01*
X105536342Y-127693713D01*
X105524728Y-127660524D01*
X105514672Y-127634181D01*
X105377806Y-127303753D01*
X105366284Y-127278005D01*
X105351027Y-127246322D01*
X105351027Y-127246321D01*
X105338080Y-127221263D01*
X105165063Y-126908212D01*
X105150717Y-126883894D01*
X105132012Y-126854129D01*
X105116357Y-126830700D01*
X104909399Y-126539021D01*
X104892455Y-126516506D01*
X104870544Y-126489028D01*
X104870542Y-126489025D01*
X104852327Y-126467452D01*
X104613987Y-126200751D01*
X104594610Y-126180255D01*
X104570940Y-126156585D01*
X105591278Y-126156585D01*
X106653352Y-127218659D01*
X107493480Y-126378531D01*
X107493377Y-125934534D01*
X106653353Y-125094510D01*
X105591278Y-126156585D01*
X104570940Y-126156585D01*
X104569744Y-126155389D01*
X104549248Y-126136012D01*
X104282540Y-125897665D01*
X104260949Y-125879436D01*
X104233468Y-125857525D01*
X104210972Y-125840597D01*
X104110506Y-125769312D01*
X103919274Y-125633624D01*
X103895799Y-125617940D01*
X103866037Y-125599241D01*
X103841762Y-125584922D01*
X103833227Y-125580205D01*
X103528758Y-125411931D01*
X103515844Y-125405258D01*
X103503764Y-125399017D01*
X103472105Y-125383765D01*
X103446291Y-125372212D01*
X103446274Y-125372205D01*
X103115817Y-125235326D01*
X103105763Y-125231488D01*
X103089476Y-125225272D01*
X103056290Y-125213658D01*
X103029407Y-125205090D01*
X102685702Y-125106070D01*
X102658362Y-125099018D01*
X102624079Y-125091195D01*
X102596443Y-125085699D01*
X102243829Y-125025787D01*
X102215876Y-125021841D01*
X102212340Y-125021442D01*
X102180956Y-125017907D01*
X102152871Y-125015540D01*
X101794095Y-124995393D01*
X101762425Y-124994500D01*
X100524500Y-124994500D01*
X100457461Y-124974815D01*
X100411706Y-124922011D01*
X100400500Y-124870500D01*
X100400500Y-124496500D01*
X101594509Y-124496500D01*
X101769445Y-124496500D01*
X101815078Y-124497787D01*
X102187759Y-124518714D01*
X102229757Y-124522256D01*
X102278567Y-124527753D01*
X102320361Y-124533654D01*
X102686739Y-124595904D01*
X102728062Y-124604122D01*
X102775972Y-124615054D01*
X102816854Y-124625600D01*
X103173978Y-124728486D01*
X103214183Y-124741299D01*
X103260554Y-124757528D01*
X103299934Y-124772559D01*
X103400813Y-124814344D01*
X103472785Y-124742372D01*
X104177064Y-124742372D01*
X105239139Y-125804447D01*
X106301214Y-124742372D01*
X105239139Y-123680297D01*
X104177064Y-124742372D01*
X103472785Y-124742372D01*
X103472786Y-124742371D01*
X102410712Y-123680297D01*
X101594509Y-124496500D01*
X100400500Y-124496500D01*
X100400500Y-124292234D01*
X100898500Y-124292234D01*
X100996498Y-124390232D01*
X102058573Y-123328158D01*
X102762851Y-123328158D01*
X103824926Y-124390233D01*
X104887001Y-123328158D01*
X105591278Y-123328158D01*
X106653352Y-124390232D01*
X107492825Y-123550759D01*
X107492721Y-123105451D01*
X106653353Y-122266083D01*
X105591278Y-123328158D01*
X104887001Y-123328158D01*
X103824926Y-122266083D01*
X102762851Y-123328158D01*
X102058573Y-123328158D01*
X100996498Y-122266083D01*
X100898500Y-122364082D01*
X100898500Y-124292234D01*
X100400500Y-124292234D01*
X100400500Y-121913945D01*
X101348637Y-121913945D01*
X102410712Y-122976020D01*
X103472787Y-121913945D01*
X104177064Y-121913945D01*
X105239139Y-122976020D01*
X106301214Y-121913945D01*
X105239139Y-120851870D01*
X104177064Y-121913945D01*
X103472787Y-121913945D01*
X102410712Y-120851870D01*
X101348637Y-121913945D01*
X100400500Y-121913945D01*
X100400500Y-121463807D01*
X100898500Y-121463807D01*
X100996498Y-121561805D01*
X102058573Y-120499731D01*
X102762851Y-120499731D01*
X103824926Y-121561806D01*
X104887001Y-120499731D01*
X105591278Y-120499731D01*
X106653352Y-121561805D01*
X107492171Y-120722987D01*
X107492066Y-120276369D01*
X106653353Y-119437656D01*
X105591278Y-120499731D01*
X104887001Y-120499731D01*
X103824926Y-119437656D01*
X102762851Y-120499731D01*
X102058573Y-120499731D01*
X100996498Y-119437656D01*
X100898500Y-119535655D01*
X100898500Y-121463807D01*
X100400500Y-121463807D01*
X100400500Y-119085517D01*
X101348637Y-119085517D01*
X102410712Y-120147592D01*
X103472786Y-119085517D01*
X104177064Y-119085517D01*
X105239139Y-120147592D01*
X106301213Y-119085517D01*
X105239139Y-118023443D01*
X104177064Y-119085517D01*
X103472786Y-119085517D01*
X102410712Y-118023443D01*
X101348637Y-119085517D01*
X100400500Y-119085517D01*
X100400500Y-118635380D01*
X100898500Y-118635380D01*
X100996498Y-118733378D01*
X102058573Y-117671304D01*
X102762851Y-117671304D01*
X103824926Y-118733379D01*
X104887001Y-117671304D01*
X105591278Y-117671304D01*
X106653352Y-118733378D01*
X107491516Y-117895214D01*
X107491411Y-117447287D01*
X106653353Y-116609229D01*
X105591278Y-117671304D01*
X104887001Y-117671304D01*
X103824926Y-116609229D01*
X102762851Y-117671304D01*
X102058573Y-117671304D01*
X100996498Y-116609229D01*
X100898500Y-116707228D01*
X100898500Y-118635380D01*
X100400500Y-118635380D01*
X100400500Y-116257090D01*
X101348637Y-116257090D01*
X102410712Y-117319165D01*
X103472786Y-116257090D01*
X104177064Y-116257090D01*
X105239139Y-117319165D01*
X106301213Y-116257090D01*
X105239139Y-115195015D01*
X104177064Y-116257090D01*
X103472786Y-116257090D01*
X102410712Y-115195015D01*
X101348637Y-116257090D01*
X100400500Y-116257090D01*
X100400500Y-115806953D01*
X100898500Y-115806953D01*
X100996498Y-115904951D01*
X102058573Y-114842877D01*
X102762851Y-114842877D01*
X103824926Y-115904952D01*
X104887001Y-114842877D01*
X105591278Y-114842877D01*
X106653352Y-115904951D01*
X107490861Y-115067442D01*
X107490756Y-114618205D01*
X106653353Y-113780802D01*
X105591278Y-114842877D01*
X104887001Y-114842877D01*
X103824926Y-113780802D01*
X102762851Y-114842877D01*
X102058573Y-114842877D01*
X100996498Y-113780802D01*
X100898500Y-113878801D01*
X100898500Y-115806953D01*
X100400500Y-115806953D01*
X100400500Y-113428663D01*
X101348637Y-113428663D01*
X102410712Y-114490738D01*
X103472787Y-113428663D01*
X104177064Y-113428663D01*
X105239139Y-114490738D01*
X106301214Y-113428663D01*
X105239139Y-112366588D01*
X104177064Y-113428663D01*
X103472787Y-113428663D01*
X102410712Y-112366588D01*
X101348637Y-113428663D01*
X100400500Y-113428663D01*
X100400500Y-112978526D01*
X100898500Y-112978526D01*
X100996498Y-113076524D01*
X102058573Y-112014450D01*
X102762851Y-112014450D01*
X103824926Y-113076525D01*
X104887001Y-112014450D01*
X105591278Y-112014450D01*
X106653352Y-113076524D01*
X107490206Y-112239670D01*
X107490101Y-111789123D01*
X106653353Y-110952375D01*
X105591278Y-112014450D01*
X104887001Y-112014450D01*
X103824926Y-110952375D01*
X102762851Y-112014450D01*
X102058573Y-112014450D01*
X100996498Y-110952375D01*
X100898500Y-111050374D01*
X100898500Y-112978526D01*
X100400500Y-112978526D01*
X100400500Y-110600236D01*
X101348637Y-110600236D01*
X102410712Y-111662311D01*
X103472787Y-110600236D01*
X104177064Y-110600236D01*
X105239139Y-111662311D01*
X106301214Y-110600236D01*
X105239139Y-109538161D01*
X104177064Y-110600236D01*
X103472787Y-110600236D01*
X102410712Y-109538161D01*
X101348637Y-110600236D01*
X100400500Y-110600236D01*
X100400500Y-110150098D01*
X100898500Y-110150098D01*
X100996499Y-110248097D01*
X102058573Y-109186022D01*
X102762851Y-109186022D01*
X103824926Y-110248097D01*
X104887000Y-109186022D01*
X105591278Y-109186022D01*
X106653352Y-110248097D01*
X107489551Y-109411898D01*
X107489446Y-108960041D01*
X106653353Y-108123948D01*
X105591278Y-109186022D01*
X104887000Y-109186022D01*
X103824926Y-108123948D01*
X102762851Y-109186022D01*
X102058573Y-109186022D01*
X100996498Y-108123948D01*
X100898500Y-108221947D01*
X100898500Y-110150098D01*
X100400500Y-110150098D01*
X100400500Y-107771809D01*
X101348637Y-107771809D01*
X102410712Y-108833884D01*
X103472787Y-107771809D01*
X104177064Y-107771809D01*
X105239139Y-108833884D01*
X106301214Y-107771809D01*
X105239139Y-106709734D01*
X104177064Y-107771809D01*
X103472787Y-107771809D01*
X102410712Y-106709734D01*
X101348637Y-107771809D01*
X100400500Y-107771809D01*
X100400500Y-107321671D01*
X100898500Y-107321671D01*
X100996498Y-107419669D01*
X102058573Y-106357595D01*
X102762851Y-106357595D01*
X103824926Y-107419670D01*
X104887000Y-106357595D01*
X105591278Y-106357595D01*
X106653352Y-107419669D01*
X107488896Y-106584125D01*
X107488791Y-106130958D01*
X106653353Y-105295520D01*
X105591278Y-106357595D01*
X104887000Y-106357595D01*
X103824926Y-105295520D01*
X102762851Y-106357595D01*
X102058573Y-106357595D01*
X100996498Y-105295520D01*
X100898500Y-105393519D01*
X100898500Y-107321671D01*
X100400500Y-107321671D01*
X100400500Y-104943382D01*
X101348637Y-104943382D01*
X102410712Y-106005457D01*
X103472787Y-104943382D01*
X104177064Y-104943382D01*
X105239139Y-106005457D01*
X106301214Y-104943382D01*
X105239139Y-103881307D01*
X104177064Y-104943382D01*
X103472787Y-104943382D01*
X102410712Y-103881307D01*
X101348637Y-104943382D01*
X100400500Y-104943382D01*
X100400500Y-104493244D01*
X100898500Y-104493244D01*
X100996498Y-104591242D01*
X102058573Y-103529168D01*
X102762851Y-103529168D01*
X103824926Y-104591243D01*
X104887001Y-103529168D01*
X105591278Y-103529168D01*
X106653352Y-104591242D01*
X107488241Y-103756353D01*
X107488135Y-103301875D01*
X106653353Y-102467093D01*
X105591278Y-103529168D01*
X104887001Y-103529168D01*
X103824926Y-102467093D01*
X102762851Y-103529168D01*
X102058573Y-103529168D01*
X100996498Y-102467093D01*
X100898500Y-102565092D01*
X100898500Y-104493244D01*
X100400500Y-104493244D01*
X100400500Y-102114955D01*
X101348637Y-102114955D01*
X102410712Y-103177030D01*
X103472787Y-102114955D01*
X104177064Y-102114955D01*
X105239139Y-103177030D01*
X106301214Y-102114955D01*
X105239139Y-101052880D01*
X104177064Y-102114955D01*
X103472787Y-102114955D01*
X102410712Y-101052880D01*
X101348637Y-102114955D01*
X100400500Y-102114955D01*
X100400500Y-101664817D01*
X100898500Y-101664817D01*
X100996498Y-101762815D01*
X102058573Y-100700741D01*
X102762851Y-100700741D01*
X103824926Y-101762816D01*
X104887001Y-100700741D01*
X105591278Y-100700741D01*
X106653352Y-101762815D01*
X107487587Y-100928580D01*
X107487480Y-100472793D01*
X106653353Y-99638666D01*
X105591278Y-100700741D01*
X104887001Y-100700741D01*
X103824926Y-99638666D01*
X102762851Y-100700741D01*
X102058573Y-100700741D01*
X100996498Y-99638666D01*
X100898500Y-99736665D01*
X100898500Y-101664817D01*
X100400500Y-101664817D01*
X100400500Y-99286528D01*
X101348637Y-99286528D01*
X102410712Y-100348603D01*
X103472787Y-99286528D01*
X104177064Y-99286528D01*
X105239139Y-100348603D01*
X106301214Y-99286528D01*
X105239139Y-98224453D01*
X104177064Y-99286528D01*
X103472787Y-99286528D01*
X102410712Y-98224453D01*
X101348637Y-99286528D01*
X100400500Y-99286528D01*
X100400500Y-98836390D01*
X100898500Y-98836390D01*
X100996498Y-98934388D01*
X102058573Y-97872314D01*
X102762851Y-97872314D01*
X103824926Y-98934389D01*
X104887001Y-97872314D01*
X105591278Y-97872314D01*
X106653352Y-98934388D01*
X107486932Y-98100808D01*
X107486825Y-97643711D01*
X106653353Y-96810239D01*
X105591278Y-97872314D01*
X104887001Y-97872314D01*
X103824926Y-96810239D01*
X102762851Y-97872314D01*
X102058573Y-97872314D01*
X100996498Y-96810239D01*
X100898500Y-96908238D01*
X100898500Y-98836390D01*
X100400500Y-98836390D01*
X100400500Y-96458100D01*
X101348637Y-96458100D01*
X102410712Y-97520175D01*
X103472786Y-96458100D01*
X104177064Y-96458100D01*
X105239139Y-97520175D01*
X106301213Y-96458100D01*
X105239139Y-95396026D01*
X104177064Y-96458100D01*
X103472786Y-96458100D01*
X102410712Y-95396026D01*
X101348637Y-96458100D01*
X100400500Y-96458100D01*
X100400500Y-96007963D01*
X100898500Y-96007963D01*
X100996498Y-96105961D01*
X102058573Y-95043887D01*
X102762851Y-95043887D01*
X103824926Y-96105962D01*
X104887001Y-95043887D01*
X105591278Y-95043887D01*
X106653352Y-96105961D01*
X107486277Y-95273036D01*
X107486170Y-94814629D01*
X106653353Y-93981812D01*
X105591278Y-95043887D01*
X104887001Y-95043887D01*
X103824926Y-93981812D01*
X102762851Y-95043887D01*
X102058573Y-95043887D01*
X100996498Y-93981812D01*
X100898500Y-94079811D01*
X100898500Y-96007963D01*
X100400500Y-96007963D01*
X100400500Y-93629673D01*
X101348637Y-93629673D01*
X102410712Y-94691748D01*
X103472786Y-93629673D01*
X104177064Y-93629673D01*
X105239139Y-94691748D01*
X106301213Y-93629673D01*
X105239139Y-92567598D01*
X104177064Y-93629673D01*
X103472786Y-93629673D01*
X102410712Y-92567598D01*
X101348637Y-93629673D01*
X100400500Y-93629673D01*
X100400500Y-93179536D01*
X100898500Y-93179536D01*
X100996498Y-93277534D01*
X102058573Y-92215460D01*
X102762851Y-92215460D01*
X103824926Y-93277535D01*
X104887001Y-92215460D01*
X105591278Y-92215460D01*
X106653352Y-93277534D01*
X107485622Y-92445264D01*
X107485515Y-91985547D01*
X106653353Y-91153385D01*
X105591278Y-92215460D01*
X104887001Y-92215460D01*
X103824926Y-91153385D01*
X102762851Y-92215460D01*
X102058573Y-92215460D01*
X100996498Y-91153385D01*
X100898500Y-91251384D01*
X100898500Y-93179536D01*
X100400500Y-93179536D01*
X100400500Y-90801246D01*
X101348637Y-90801246D01*
X102410712Y-91863321D01*
X103472787Y-90801246D01*
X104177064Y-90801246D01*
X105239139Y-91863321D01*
X106301214Y-90801246D01*
X105239139Y-89739171D01*
X104177064Y-90801246D01*
X103472787Y-90801246D01*
X102410712Y-89739171D01*
X101348637Y-90801246D01*
X100400500Y-90801246D01*
X100400500Y-90351109D01*
X100898500Y-90351109D01*
X100996498Y-90449107D01*
X102058573Y-89387033D01*
X102762851Y-89387033D01*
X103824926Y-90449108D01*
X104887001Y-89387033D01*
X105591278Y-89387033D01*
X106653352Y-90449107D01*
X107484967Y-89617492D01*
X107484860Y-89156465D01*
X106653353Y-88324958D01*
X105591278Y-89387033D01*
X104887001Y-89387033D01*
X103824926Y-88324958D01*
X102762851Y-89387033D01*
X102058573Y-89387033D01*
X100996498Y-88324958D01*
X100898500Y-88422957D01*
X100898500Y-90351109D01*
X100400500Y-90351109D01*
X100400500Y-87972819D01*
X101348637Y-87972819D01*
X102410712Y-89034894D01*
X103472787Y-87972819D01*
X104177064Y-87972819D01*
X105239139Y-89034894D01*
X106301214Y-87972819D01*
X105239139Y-86910744D01*
X104177064Y-87972819D01*
X103472787Y-87972819D01*
X102410712Y-86910744D01*
X101348637Y-87972819D01*
X100400500Y-87972819D01*
X100400500Y-87522681D01*
X100898500Y-87522681D01*
X100996499Y-87620680D01*
X102058573Y-86558605D01*
X102762851Y-86558605D01*
X103824926Y-87620680D01*
X104887000Y-86558605D01*
X105591278Y-86558605D01*
X106653352Y-87620679D01*
X107484312Y-86789719D01*
X107484205Y-86327383D01*
X106653353Y-85496531D01*
X105591278Y-86558605D01*
X104887000Y-86558605D01*
X103824926Y-85496531D01*
X102762851Y-86558605D01*
X102058573Y-86558605D01*
X100996498Y-85496531D01*
X100898500Y-85594530D01*
X100898500Y-87522681D01*
X100400500Y-87522681D01*
X100400500Y-85144392D01*
X101348637Y-85144392D01*
X102410712Y-86206467D01*
X103472787Y-85144392D01*
X104177064Y-85144392D01*
X105239139Y-86206467D01*
X106301214Y-85144392D01*
X105239139Y-84082317D01*
X104177064Y-85144392D01*
X103472787Y-85144392D01*
X102410712Y-84082317D01*
X101348637Y-85144392D01*
X100400500Y-85144392D01*
X100400500Y-84694254D01*
X100898500Y-84694254D01*
X100996498Y-84792252D01*
X102058573Y-83730178D01*
X102762851Y-83730178D01*
X103824926Y-84792253D01*
X104887000Y-83730178D01*
X105591278Y-83730178D01*
X106653352Y-84792252D01*
X107483658Y-83961947D01*
X107483549Y-83498300D01*
X106653352Y-82668103D01*
X105591278Y-83730178D01*
X104887000Y-83730178D01*
X103824926Y-82668103D01*
X102762851Y-83730178D01*
X102058573Y-83730178D01*
X100996498Y-82668103D01*
X100898500Y-82766102D01*
X100898500Y-84694254D01*
X100400500Y-84694254D01*
X100400500Y-82315965D01*
X101348637Y-82315965D01*
X102410712Y-83378040D01*
X103472787Y-82315965D01*
X104177064Y-82315965D01*
X105239139Y-83378040D01*
X106301214Y-82315965D01*
X105239139Y-81253890D01*
X104177064Y-82315965D01*
X103472787Y-82315965D01*
X102410712Y-81253890D01*
X101348637Y-82315965D01*
X100400500Y-82315965D01*
X100400500Y-80436569D01*
X100400500Y-80436567D01*
X100393653Y-80415497D01*
X100389111Y-80396577D01*
X100387315Y-80385237D01*
X100385646Y-80374696D01*
X100375584Y-80354949D01*
X100368140Y-80336976D01*
X100368118Y-80336909D01*
X100361296Y-80315911D01*
X100355764Y-80308297D01*
X100348274Y-80297987D01*
X100338108Y-80281398D01*
X100334874Y-80275051D01*
X100328050Y-80261658D01*
X100307398Y-80241006D01*
X100307380Y-80240986D01*
X100118446Y-80052052D01*
X100784121Y-80052052D01*
X100792647Y-80065964D01*
X100795028Y-80070217D01*
X100815016Y-80109450D01*
X100817055Y-80113873D01*
X100826434Y-80136519D01*
X100828120Y-80141087D01*
X100832669Y-80155092D01*
X100839360Y-80168221D01*
X100841399Y-80172644D01*
X100850781Y-80195293D01*
X100852467Y-80199863D01*
X100866075Y-80241742D01*
X100867397Y-80246429D01*
X100873121Y-80270271D01*
X100874072Y-80275051D01*
X100876376Y-80289601D01*
X100880928Y-80303611D01*
X100882249Y-80308297D01*
X100887973Y-80332131D01*
X100888923Y-80336909D01*
X100895812Y-80380402D01*
X100896384Y-80385237D01*
X100898309Y-80409681D01*
X100898500Y-80414548D01*
X100898500Y-81865827D01*
X100996498Y-81963825D01*
X102058573Y-80901751D01*
X102762851Y-80901751D01*
X103824926Y-81963826D01*
X104887001Y-80901751D01*
X105591278Y-80901751D01*
X106653352Y-81963825D01*
X107483003Y-81134174D01*
X107482894Y-80669217D01*
X106653353Y-79839676D01*
X105591278Y-80901751D01*
X104887001Y-80901751D01*
X103824926Y-79839676D01*
X102762851Y-80901751D01*
X102058573Y-80901751D01*
X100996498Y-79839675D01*
X100784121Y-80052052D01*
X100118446Y-80052052D01*
X99553932Y-79487538D01*
X101348637Y-79487538D01*
X102410712Y-80549613D01*
X103472787Y-79487538D01*
X104177064Y-79487538D01*
X105239139Y-80549613D01*
X106301214Y-79487538D01*
X105239139Y-78425463D01*
X104177064Y-79487538D01*
X103472787Y-79487538D01*
X102410712Y-78425463D01*
X101348637Y-79487538D01*
X99553932Y-79487538D01*
X98139718Y-78073324D01*
X99934424Y-78073324D01*
X100996498Y-79135398D01*
X102058573Y-78073324D01*
X102762851Y-78073324D01*
X103824926Y-79135399D01*
X104887001Y-78073324D01*
X105591278Y-78073324D01*
X106653352Y-79135398D01*
X107482348Y-78306402D01*
X107482239Y-77840135D01*
X106653353Y-77011249D01*
X105591278Y-78073324D01*
X104887001Y-78073324D01*
X103824926Y-77011249D01*
X102762851Y-78073324D01*
X102058573Y-78073324D01*
X100996498Y-77011249D01*
X99934424Y-78073324D01*
X98139718Y-78073324D01*
X97305232Y-77238838D01*
X97271747Y-77177515D01*
X97268913Y-77151157D01*
X97268913Y-76659111D01*
X98520210Y-76659111D01*
X99582285Y-77721186D01*
X100644360Y-76659111D01*
X101348637Y-76659111D01*
X102410712Y-77721186D01*
X103472787Y-76659111D01*
X104177064Y-76659111D01*
X105239139Y-77721186D01*
X106301214Y-76659111D01*
X105239139Y-75597036D01*
X104177064Y-76659111D01*
X103472787Y-76659111D01*
X102410712Y-75597036D01*
X101348637Y-76659111D01*
X100644360Y-76659111D01*
X99582285Y-75597036D01*
X98520210Y-76659111D01*
X97268913Y-76659111D01*
X97268913Y-74624000D01*
X97766913Y-74624000D01*
X97766913Y-75905813D01*
X98168071Y-76306971D01*
X99230146Y-75244897D01*
X99934424Y-75244897D01*
X100996498Y-76306971D01*
X102058572Y-75244897D01*
X102762851Y-75244897D01*
X103824926Y-76306972D01*
X104887001Y-75244897D01*
X105591278Y-75244897D01*
X106653352Y-76306971D01*
X107481693Y-75478630D01*
X107481584Y-75011053D01*
X107094531Y-74624000D01*
X106212175Y-74624000D01*
X105591278Y-75244897D01*
X104887001Y-75244897D01*
X104266104Y-74624000D01*
X103383748Y-74624000D01*
X102762851Y-75244897D01*
X102058572Y-75244897D01*
X102058573Y-75244896D01*
X101437677Y-74624000D01*
X100555321Y-74624000D01*
X99934424Y-75244897D01*
X99230146Y-75244897D01*
X98609249Y-74624000D01*
X97766913Y-74624000D01*
X97268913Y-74624000D01*
X97268913Y-74000000D01*
X107979351Y-74000000D01*
X107979539Y-74813091D01*
X107999487Y-160950748D01*
X107979818Y-161017792D01*
X107965950Y-161035586D01*
X104537604Y-164692490D01*
X100499643Y-168999649D01*
X100337678Y-169161612D01*
X100276357Y-169195096D01*
X100206665Y-169190112D01*
X100162319Y-169161612D01*
X100000342Y-168999634D01*
X98283915Y-167168778D01*
X98067949Y-166938414D01*
X98750573Y-166938414D01*
X99778387Y-168034750D01*
X100644359Y-167168778D01*
X99582284Y-166106703D01*
X98750573Y-166938414D01*
X98067949Y-166938414D01*
X96699355Y-165478581D01*
X97381979Y-165478581D01*
X98409793Y-166574916D01*
X99230144Y-165754565D01*
X99934424Y-165754565D01*
X100996498Y-166816639D01*
X102058573Y-165754565D01*
X100996498Y-164692490D01*
X99934424Y-165754565D01*
X99230144Y-165754565D01*
X99230145Y-165754564D01*
X98168071Y-164692490D01*
X97381979Y-165478581D01*
X96699355Y-165478581D01*
X95330762Y-164018748D01*
X96013385Y-164018748D01*
X97041200Y-165115083D01*
X97815932Y-164340351D01*
X98520210Y-164340351D01*
X99582285Y-165402426D01*
X100644359Y-164340351D01*
X101348637Y-164340351D01*
X102410712Y-165402426D01*
X103472786Y-164340351D01*
X102410712Y-163278277D01*
X101348637Y-164340351D01*
X100644359Y-164340351D01*
X99582285Y-163278277D01*
X98520210Y-164340351D01*
X97815932Y-164340351D01*
X96753857Y-163278276D01*
X96013385Y-164018748D01*
X95330762Y-164018748D01*
X93962168Y-162558914D01*
X94644791Y-162558914D01*
X95672606Y-163655249D01*
X96401717Y-162926138D01*
X97105996Y-162926138D01*
X98168071Y-163988212D01*
X99230146Y-162926138D01*
X99934424Y-162926138D01*
X100996498Y-163988212D01*
X102058573Y-162926138D01*
X102762851Y-162926138D01*
X103824926Y-163988213D01*
X104887001Y-162926138D01*
X103824926Y-161864063D01*
X102762851Y-162926138D01*
X102058573Y-162926138D01*
X100996498Y-161864063D01*
X99934424Y-162926138D01*
X99230146Y-162926138D01*
X98168071Y-161864063D01*
X97105996Y-162926138D01*
X96401717Y-162926138D01*
X96401718Y-162926137D01*
X95339643Y-161864062D01*
X94644791Y-162558914D01*
X93962168Y-162558914D01*
X92593574Y-161099080D01*
X93276198Y-161099080D01*
X94304012Y-162195416D01*
X94987504Y-161511924D01*
X95691783Y-161511924D01*
X96753858Y-162573999D01*
X97815932Y-161511924D01*
X98520210Y-161511924D01*
X99582285Y-162573999D01*
X100644359Y-161511924D01*
X101348637Y-161511924D01*
X102410712Y-162573999D01*
X103472786Y-161511924D01*
X104177064Y-161511924D01*
X105239139Y-162573999D01*
X106301213Y-161511924D01*
X105239139Y-160449849D01*
X104177064Y-161511924D01*
X103472786Y-161511924D01*
X102410712Y-160449849D01*
X101348637Y-161511924D01*
X100644359Y-161511924D01*
X99582285Y-160449849D01*
X98520210Y-161511924D01*
X97815932Y-161511924D01*
X96753858Y-160449849D01*
X95691783Y-161511924D01*
X94987504Y-161511924D01*
X94987505Y-161511923D01*
X93925430Y-160449849D01*
X93276198Y-161099080D01*
X92593574Y-161099080D01*
X92534048Y-161035586D01*
X92502558Y-160973215D01*
X92500511Y-160950748D01*
X92500709Y-160097711D01*
X94277569Y-160097711D01*
X95339644Y-161159786D01*
X96401719Y-160097711D01*
X97105996Y-160097711D01*
X98168071Y-161159785D01*
X99230146Y-160097711D01*
X99934424Y-160097711D01*
X100996498Y-161159785D01*
X102058573Y-160097711D01*
X102762851Y-160097711D01*
X103824926Y-161159786D01*
X104887001Y-160097711D01*
X105591278Y-160097711D01*
X106653352Y-161159785D01*
X107501338Y-160311799D01*
X107501238Y-159883521D01*
X106653353Y-159035636D01*
X105591278Y-160097711D01*
X104887001Y-160097711D01*
X103824926Y-159035636D01*
X102762851Y-160097711D01*
X102058573Y-160097711D01*
X100996498Y-159035636D01*
X99934424Y-160097711D01*
X99230146Y-160097711D01*
X98168071Y-159035636D01*
X97105996Y-160097711D01*
X96401719Y-160097711D01*
X95339644Y-159035636D01*
X94277569Y-160097711D01*
X92500709Y-160097711D01*
X92500759Y-159883521D01*
X92501006Y-158819143D01*
X92999002Y-158819143D01*
X93925431Y-159745572D01*
X94987506Y-158683497D01*
X95691783Y-158683497D01*
X96753858Y-159745572D01*
X97815933Y-158683497D01*
X98520210Y-158683497D01*
X99582285Y-159745572D01*
X100644360Y-158683497D01*
X101348637Y-158683497D01*
X102410712Y-159745572D01*
X103472787Y-158683497D01*
X104177064Y-158683497D01*
X105239139Y-159745572D01*
X106301214Y-158683497D01*
X105239139Y-157621422D01*
X104177064Y-158683497D01*
X103472787Y-158683497D01*
X102410712Y-157621422D01*
X101348637Y-158683497D01*
X100644360Y-158683497D01*
X99582285Y-157621422D01*
X98520210Y-158683497D01*
X97815933Y-158683497D01*
X96753858Y-157621422D01*
X95691783Y-158683497D01*
X94987506Y-158683497D01*
X93925430Y-157621421D01*
X92999066Y-158547785D01*
X92999002Y-158819143D01*
X92501006Y-158819143D01*
X92501365Y-157269284D01*
X94277569Y-157269284D01*
X95339644Y-158331359D01*
X96401719Y-157269284D01*
X97105996Y-157269284D01*
X98168071Y-158331358D01*
X99230146Y-157269284D01*
X99934424Y-157269284D01*
X100996498Y-158331358D01*
X102058573Y-157269284D01*
X102762851Y-157269284D01*
X103824926Y-158331359D01*
X104887001Y-157269284D01*
X105591278Y-157269284D01*
X106653352Y-158331358D01*
X107500683Y-157484027D01*
X107500583Y-157054439D01*
X106653353Y-156207209D01*
X105591278Y-157269284D01*
X104887001Y-157269284D01*
X103824926Y-156207209D01*
X102762851Y-157269284D01*
X102058573Y-157269284D01*
X100996498Y-156207209D01*
X99934424Y-157269284D01*
X99230146Y-157269284D01*
X98168071Y-156207209D01*
X97105996Y-157269284D01*
X96401719Y-157269284D01*
X95339644Y-156207209D01*
X94277569Y-157269284D01*
X92501365Y-157269284D01*
X92501661Y-155991371D01*
X92999657Y-155991371D01*
X93925431Y-156917145D01*
X94987506Y-155855070D01*
X95691783Y-155855070D01*
X96753858Y-156917145D01*
X97815933Y-155855070D01*
X98520210Y-155855070D01*
X99582285Y-156917145D01*
X100644360Y-155855070D01*
X101348637Y-155855070D01*
X102410712Y-156917145D01*
X103472787Y-155855070D01*
X104177064Y-155855070D01*
X105239139Y-156917145D01*
X106301214Y-155855070D01*
X105239139Y-154792995D01*
X104177064Y-155855070D01*
X103472787Y-155855070D01*
X102410712Y-154792995D01*
X101348637Y-155855070D01*
X100644360Y-155855070D01*
X99582285Y-154792995D01*
X98520210Y-155855070D01*
X97815933Y-155855070D01*
X96753858Y-154792995D01*
X95691783Y-155855070D01*
X94987506Y-155855070D01*
X93925430Y-154792994D01*
X92999721Y-155718703D01*
X92999657Y-155991371D01*
X92501661Y-155991371D01*
X92502020Y-154440856D01*
X94277569Y-154440856D01*
X95339644Y-155502931D01*
X96401718Y-154440856D01*
X97105996Y-154440856D01*
X98168071Y-155502931D01*
X99230145Y-154440856D01*
X99934424Y-154440856D01*
X100996498Y-155502931D01*
X102058573Y-154440856D01*
X102762851Y-154440856D01*
X103824926Y-155502931D01*
X104887000Y-154440856D01*
X105591278Y-154440856D01*
X106653352Y-155502931D01*
X107500029Y-154656254D01*
X107499928Y-154225357D01*
X106653353Y-153378782D01*
X105591278Y-154440856D01*
X104887000Y-154440856D01*
X103824926Y-153378782D01*
X102762851Y-154440856D01*
X102058573Y-154440856D01*
X100996498Y-153378782D01*
X99934424Y-154440856D01*
X99230145Y-154440856D01*
X98168071Y-153378782D01*
X97105996Y-154440856D01*
X96401718Y-154440856D01*
X95339644Y-153378782D01*
X94277569Y-154440856D01*
X92502020Y-154440856D01*
X92502316Y-153163600D01*
X93000313Y-153163600D01*
X93925431Y-154088718D01*
X94987506Y-153026643D01*
X95691783Y-153026643D01*
X96753858Y-154088718D01*
X97815933Y-153026643D01*
X98520210Y-153026643D01*
X99582285Y-154088718D01*
X100644360Y-153026643D01*
X101348637Y-153026643D01*
X102410712Y-154088718D01*
X103472787Y-153026643D01*
X104177064Y-153026643D01*
X105239139Y-154088718D01*
X106301214Y-153026643D01*
X105239139Y-151964568D01*
X104177064Y-153026643D01*
X103472787Y-153026643D01*
X102410712Y-151964568D01*
X101348637Y-153026643D01*
X100644360Y-153026643D01*
X99582285Y-151964568D01*
X98520210Y-153026643D01*
X97815933Y-153026643D01*
X96753858Y-151964568D01*
X95691783Y-153026643D01*
X94987506Y-153026643D01*
X93925430Y-151964567D01*
X93000377Y-152889621D01*
X93000313Y-153163600D01*
X92502316Y-153163600D01*
X92502675Y-151612429D01*
X94277569Y-151612429D01*
X95339644Y-152674504D01*
X96401718Y-151612429D01*
X96401717Y-151612428D01*
X97105996Y-151612428D01*
X98168071Y-152674503D01*
X99230146Y-151612429D01*
X99934424Y-151612429D01*
X100996498Y-152674503D01*
X102058573Y-151612429D01*
X102762851Y-151612429D01*
X103824926Y-152674504D01*
X104887000Y-151612429D01*
X105591278Y-151612429D01*
X106653352Y-152674503D01*
X107499374Y-151828481D01*
X107499273Y-151396274D01*
X106653353Y-150550354D01*
X105591278Y-151612429D01*
X104887000Y-151612429D01*
X104109752Y-150835181D01*
X104088777Y-150847555D01*
X103763523Y-151027316D01*
X103726048Y-151046678D01*
X103681772Y-151067998D01*
X103643277Y-151085224D01*
X103299943Y-151227435D01*
X103260556Y-151242471D01*
X103214179Y-151258701D01*
X103173981Y-151271512D01*
X103075353Y-151299926D01*
X102762851Y-151612429D01*
X102058573Y-151612429D01*
X101941270Y-151495126D01*
X101815080Y-151502213D01*
X101769445Y-151503500D01*
X100043353Y-151503500D01*
X99934424Y-151612429D01*
X99230146Y-151612429D01*
X99121217Y-151503500D01*
X98730555Y-151503500D01*
X98684920Y-151502213D01*
X98312237Y-151481284D01*
X98270223Y-151477741D01*
X98221394Y-151472241D01*
X98179617Y-151466342D01*
X97813257Y-151404095D01*
X97771933Y-151395876D01*
X97724025Y-151384944D01*
X97683147Y-151374399D01*
X97419873Y-151298551D01*
X97105996Y-151612428D01*
X96401717Y-151612428D01*
X95339644Y-150550354D01*
X94277569Y-151612429D01*
X92502675Y-151612429D01*
X92502971Y-150335827D01*
X93000967Y-150335827D01*
X93925431Y-151260291D01*
X94987506Y-150198216D01*
X93925430Y-149136140D01*
X93001032Y-150060538D01*
X93000967Y-150335827D01*
X92502971Y-150335827D01*
X92503626Y-147508055D01*
X93001622Y-147508055D01*
X93925430Y-148431863D01*
X94358787Y-147998506D01*
X94354122Y-147978062D01*
X94345904Y-147936739D01*
X94283654Y-147570361D01*
X94277753Y-147528567D01*
X94272256Y-147479757D01*
X94268714Y-147437759D01*
X94247787Y-147065078D01*
X94246500Y-147019445D01*
X94246500Y-146628783D01*
X93925430Y-146307713D01*
X93001687Y-147231456D01*
X93001622Y-147508055D01*
X92503626Y-147508055D01*
X92504281Y-144680283D01*
X93002277Y-144680283D01*
X93925431Y-145603437D01*
X94246500Y-145282368D01*
X94246500Y-143800356D01*
X93925430Y-143479286D01*
X93002342Y-144402374D01*
X93002277Y-144680283D01*
X92504281Y-144680283D01*
X92504936Y-141852511D01*
X93002932Y-141852511D01*
X93925430Y-142775009D01*
X94246500Y-142453940D01*
X94246500Y-140971929D01*
X93925430Y-140650859D01*
X93002998Y-141573291D01*
X93002932Y-141852511D01*
X92504936Y-141852511D01*
X92505591Y-139024738D01*
X93003587Y-139024738D01*
X93925431Y-139946582D01*
X94246500Y-139625513D01*
X94246500Y-138143501D01*
X93925431Y-137822432D01*
X93003653Y-138744208D01*
X93003587Y-139024738D01*
X92505591Y-139024738D01*
X92506246Y-136196966D01*
X93004242Y-136196966D01*
X93925431Y-137118155D01*
X94246500Y-136797086D01*
X94246500Y-135315074D01*
X93925430Y-134994004D01*
X93004308Y-135915126D01*
X93004242Y-136196966D01*
X92506246Y-136196966D01*
X92506901Y-133369194D01*
X93004897Y-133369194D01*
X93925431Y-134289728D01*
X94246500Y-133968659D01*
X94246500Y-132486647D01*
X93925430Y-132165577D01*
X93004963Y-133086044D01*
X93004897Y-133369194D01*
X92506901Y-133369194D01*
X92507556Y-130541422D01*
X93005552Y-130541422D01*
X93925431Y-131461301D01*
X94246500Y-131140232D01*
X94246500Y-129658220D01*
X93925430Y-129337150D01*
X93005618Y-130256962D01*
X93005552Y-130541422D01*
X92507556Y-130541422D01*
X92508211Y-127713650D01*
X93006207Y-127713650D01*
X93925430Y-128632873D01*
X94315376Y-128242927D01*
X94345906Y-128063242D01*
X94354131Y-128021897D01*
X94365061Y-127974002D01*
X94375599Y-127933143D01*
X94478474Y-127576058D01*
X94491257Y-127535944D01*
X94507477Y-127489577D01*
X94522542Y-127450105D01*
X94623375Y-127206668D01*
X93925430Y-126508723D01*
X93006274Y-127427879D01*
X93006207Y-127713650D01*
X92508211Y-127713650D01*
X92508572Y-126156585D01*
X94277569Y-126156585D01*
X94859645Y-126738661D01*
X94902445Y-126661222D01*
X94923854Y-126624928D01*
X94949974Y-126583353D01*
X94973427Y-126548252D01*
X95188501Y-126245135D01*
X95213843Y-126211458D01*
X95244449Y-126173078D01*
X95271677Y-126140833D01*
X95519364Y-125863672D01*
X95548392Y-125832969D01*
X95583139Y-125798230D01*
X95613730Y-125769312D01*
X95825339Y-125580205D01*
X95339644Y-125094510D01*
X94277569Y-126156585D01*
X92508572Y-126156585D01*
X92508866Y-124885878D01*
X93006862Y-124885878D01*
X93925431Y-125804447D01*
X94987506Y-124742372D01*
X95691783Y-124742372D01*
X96224889Y-125275478D01*
X96298252Y-125223426D01*
X96333353Y-125199974D01*
X96374928Y-125173854D01*
X96411222Y-125152445D01*
X96736486Y-124972678D01*
X96773920Y-124953339D01*
X96818147Y-124932036D01*
X96856681Y-124914791D01*
X97200059Y-124772560D01*
X97239427Y-124757533D01*
X97285782Y-124741310D01*
X97326002Y-124728490D01*
X97683163Y-124625594D01*
X97695876Y-124622315D01*
X96753858Y-123680297D01*
X95691783Y-124742372D01*
X94987506Y-124742372D01*
X93925430Y-123680296D01*
X93006929Y-124598797D01*
X93006862Y-124885878D01*
X92508866Y-124885878D01*
X92509227Y-123328158D01*
X94277569Y-123328158D01*
X95339644Y-124390233D01*
X96401719Y-123328158D01*
X97105996Y-123328158D01*
X98168071Y-124390232D01*
X99101500Y-123456804D01*
X99101500Y-123199512D01*
X98168071Y-122266083D01*
X97105996Y-123328158D01*
X96401719Y-123328158D01*
X95339644Y-122266083D01*
X94277569Y-123328158D01*
X92509227Y-123328158D01*
X92509521Y-122058106D01*
X93007517Y-122058106D01*
X93925431Y-122976020D01*
X94987506Y-121913945D01*
X95691783Y-121913945D01*
X96753858Y-122976020D01*
X97815933Y-121913945D01*
X96753858Y-120851870D01*
X95691783Y-121913945D01*
X94987506Y-121913945D01*
X93925430Y-120851869D01*
X93007584Y-121769715D01*
X93007517Y-122058106D01*
X92509521Y-122058106D01*
X92509882Y-120499731D01*
X94277569Y-120499731D01*
X95339644Y-121561806D01*
X96401719Y-120499731D01*
X97105996Y-120499731D01*
X98168071Y-121561805D01*
X99101500Y-120628377D01*
X99101500Y-120371085D01*
X98168071Y-119437656D01*
X97105996Y-120499731D01*
X96401719Y-120499731D01*
X95339644Y-119437656D01*
X94277569Y-120499731D01*
X92509882Y-120499731D01*
X92510176Y-119230333D01*
X93008172Y-119230333D01*
X93925431Y-120147592D01*
X94987505Y-119085517D01*
X95691783Y-119085517D01*
X96753858Y-120147592D01*
X97815932Y-119085517D01*
X96753858Y-118023443D01*
X95691783Y-119085517D01*
X94987505Y-119085517D01*
X93925430Y-118023442D01*
X93008239Y-118940633D01*
X93008172Y-119230333D01*
X92510176Y-119230333D01*
X92510537Y-117671304D01*
X94277569Y-117671304D01*
X95339644Y-118733379D01*
X96401719Y-117671304D01*
X97105996Y-117671304D01*
X98168071Y-118733378D01*
X99101500Y-117799950D01*
X99101500Y-117542658D01*
X98168071Y-116609229D01*
X97105996Y-117671304D01*
X96401719Y-117671304D01*
X95339644Y-116609229D01*
X94277569Y-117671304D01*
X92510537Y-117671304D01*
X92510831Y-116402561D01*
X93008827Y-116402561D01*
X93925431Y-117319165D01*
X94987505Y-116257090D01*
X95691783Y-116257090D01*
X96753858Y-117319165D01*
X97815932Y-116257090D01*
X96753858Y-115195015D01*
X95691783Y-116257090D01*
X94987505Y-116257090D01*
X93925430Y-115195015D01*
X93008895Y-116111550D01*
X93008827Y-116402561D01*
X92510831Y-116402561D01*
X92511192Y-114842877D01*
X94277569Y-114842877D01*
X95339644Y-115904952D01*
X96401719Y-114842877D01*
X97105996Y-114842877D01*
X98168071Y-115904951D01*
X99101500Y-114971523D01*
X99101500Y-114714231D01*
X98168071Y-113780802D01*
X97105996Y-114842877D01*
X96401719Y-114842877D01*
X95339644Y-113780802D01*
X94277569Y-114842877D01*
X92511192Y-114842877D01*
X92511486Y-113574788D01*
X93009481Y-113574788D01*
X93925431Y-114490738D01*
X94987506Y-113428663D01*
X95691783Y-113428663D01*
X96753858Y-114490738D01*
X97815933Y-113428663D01*
X96753858Y-112366588D01*
X95691783Y-113428663D01*
X94987506Y-113428663D01*
X93925430Y-112366587D01*
X93009550Y-113282467D01*
X93009481Y-113574788D01*
X92511486Y-113574788D01*
X92511847Y-112014450D01*
X94277569Y-112014450D01*
X95339644Y-113076525D01*
X96401719Y-112014450D01*
X97105996Y-112014450D01*
X98168071Y-113076524D01*
X99101500Y-112143096D01*
X99101500Y-111885804D01*
X98168071Y-110952375D01*
X97105996Y-112014450D01*
X96401719Y-112014450D01*
X95339644Y-110952375D01*
X94277569Y-112014450D01*
X92511847Y-112014450D01*
X92512141Y-110747016D01*
X93010136Y-110747016D01*
X93925431Y-111662311D01*
X94987506Y-110600236D01*
X95691783Y-110600236D01*
X96753858Y-111662311D01*
X97815933Y-110600236D01*
X96753858Y-109538161D01*
X95691783Y-110600236D01*
X94987506Y-110600236D01*
X93925430Y-109538160D01*
X93010205Y-110453385D01*
X93010136Y-110747016D01*
X92512141Y-110747016D01*
X92512503Y-109186022D01*
X94277569Y-109186022D01*
X95339644Y-110248097D01*
X96401718Y-109186022D01*
X97105996Y-109186022D01*
X98168071Y-110248097D01*
X99101500Y-109314668D01*
X99101500Y-109057377D01*
X98168071Y-108123948D01*
X97105996Y-109186022D01*
X96401718Y-109186022D01*
X95339644Y-108123948D01*
X94277569Y-109186022D01*
X92512503Y-109186022D01*
X92512796Y-107919244D01*
X93010791Y-107919244D01*
X93925431Y-108833884D01*
X94987506Y-107771809D01*
X95691783Y-107771809D01*
X96753858Y-108833884D01*
X97815933Y-107771809D01*
X96753858Y-106709734D01*
X95691783Y-107771809D01*
X94987506Y-107771809D01*
X93925430Y-106709733D01*
X93010860Y-107624303D01*
X93010791Y-107919244D01*
X92512796Y-107919244D01*
X92513158Y-106357595D01*
X94277569Y-106357595D01*
X95339644Y-107419670D01*
X96401718Y-106357595D01*
X97105996Y-106357595D01*
X98168071Y-107419669D01*
X99101500Y-106486241D01*
X99101500Y-106228949D01*
X98168071Y-105295520D01*
X97105996Y-106357595D01*
X96401718Y-106357595D01*
X95339644Y-105295520D01*
X94277569Y-106357595D01*
X92513158Y-106357595D01*
X92513451Y-105091472D01*
X93011446Y-105091472D01*
X93925431Y-106005457D01*
X94987506Y-104943382D01*
X95691783Y-104943382D01*
X96753858Y-106005457D01*
X97815933Y-104943382D01*
X96753858Y-103881307D01*
X95691783Y-104943382D01*
X94987506Y-104943382D01*
X93925430Y-103881306D01*
X93011516Y-104795221D01*
X93011446Y-105091472D01*
X92513451Y-105091472D01*
X92513813Y-103529168D01*
X94277569Y-103529168D01*
X95339644Y-104591243D01*
X96401719Y-103529168D01*
X97105996Y-103529168D01*
X98168071Y-104591242D01*
X99101500Y-103657814D01*
X99101500Y-103400522D01*
X98168071Y-102467093D01*
X97105996Y-103529168D01*
X96401719Y-103529168D01*
X95339644Y-102467093D01*
X94277569Y-103529168D01*
X92513813Y-103529168D01*
X92514106Y-102263700D01*
X93012101Y-102263700D01*
X93925431Y-103177030D01*
X94987506Y-102114955D01*
X95691783Y-102114955D01*
X96753858Y-103177030D01*
X97815933Y-102114955D01*
X96753858Y-101052880D01*
X95691783Y-102114955D01*
X94987506Y-102114955D01*
X93925430Y-101052879D01*
X93012171Y-101966138D01*
X93012101Y-102263700D01*
X92514106Y-102263700D01*
X92514468Y-100700741D01*
X94277569Y-100700741D01*
X95339644Y-101762816D01*
X96401719Y-100700741D01*
X97105996Y-100700741D01*
X98168071Y-101762815D01*
X99101500Y-100829387D01*
X99101500Y-100572095D01*
X98168071Y-99638666D01*
X97105996Y-100700741D01*
X96401719Y-100700741D01*
X95339644Y-99638666D01*
X94277569Y-100700741D01*
X92514468Y-100700741D01*
X92514761Y-99435928D01*
X93012756Y-99435928D01*
X93925431Y-100348603D01*
X94987506Y-99286528D01*
X95691783Y-99286528D01*
X96753858Y-100348603D01*
X97815933Y-99286528D01*
X96753858Y-98224453D01*
X95691783Y-99286528D01*
X94987506Y-99286528D01*
X93925430Y-98224452D01*
X93012826Y-99137056D01*
X93012756Y-99435928D01*
X92514761Y-99435928D01*
X92515123Y-97872314D01*
X94277569Y-97872314D01*
X95339644Y-98934389D01*
X96401719Y-97872314D01*
X97105996Y-97872314D01*
X98168071Y-98934388D01*
X99101500Y-98000960D01*
X99101500Y-97743668D01*
X98168071Y-96810239D01*
X97105996Y-97872314D01*
X96401719Y-97872314D01*
X95339644Y-96810239D01*
X94277569Y-97872314D01*
X92515123Y-97872314D01*
X92515416Y-96608156D01*
X93013411Y-96608156D01*
X93925430Y-97520175D01*
X94987505Y-96458100D01*
X95691783Y-96458100D01*
X96753858Y-97520175D01*
X97815932Y-96458100D01*
X96753858Y-95396026D01*
X95691783Y-96458100D01*
X94987505Y-96458100D01*
X93925430Y-95396025D01*
X93013481Y-96307974D01*
X93013411Y-96608156D01*
X92515416Y-96608156D01*
X92515778Y-95043887D01*
X94277569Y-95043887D01*
X95339644Y-96105962D01*
X96401719Y-95043887D01*
X97105996Y-95043887D01*
X98168071Y-96105961D01*
X99101500Y-95172533D01*
X99101500Y-94915241D01*
X98168071Y-93981812D01*
X97105996Y-95043887D01*
X96401719Y-95043887D01*
X95339644Y-93981812D01*
X94277569Y-95043887D01*
X92515778Y-95043887D01*
X92516071Y-93780383D01*
X93014066Y-93780383D01*
X93925431Y-94691748D01*
X94987505Y-93629673D01*
X95691783Y-93629673D01*
X96753858Y-94691748D01*
X97815932Y-93629673D01*
X96753858Y-92567598D01*
X95691783Y-93629673D01*
X94987505Y-93629673D01*
X93925430Y-92567598D01*
X93014137Y-93478891D01*
X93014066Y-93780383D01*
X92516071Y-93780383D01*
X92516433Y-92215460D01*
X94277569Y-92215460D01*
X95339644Y-93277535D01*
X96401719Y-92215460D01*
X97105996Y-92215460D01*
X98168071Y-93277534D01*
X99101500Y-92344106D01*
X99101500Y-92086814D01*
X98168071Y-91153385D01*
X97105996Y-92215460D01*
X96401719Y-92215460D01*
X95339644Y-91153385D01*
X94277569Y-92215460D01*
X92516433Y-92215460D01*
X92516725Y-90952611D01*
X93014721Y-90952611D01*
X93925431Y-91863321D01*
X94987506Y-90801246D01*
X95691783Y-90801246D01*
X96753858Y-91863321D01*
X97815933Y-90801246D01*
X96753858Y-89739171D01*
X95691783Y-90801246D01*
X94987506Y-90801246D01*
X93925430Y-89739170D01*
X93014792Y-90649808D01*
X93014721Y-90952611D01*
X92516725Y-90952611D01*
X92517088Y-89387033D01*
X94277569Y-89387033D01*
X95339644Y-90449108D01*
X96401719Y-89387033D01*
X97105996Y-89387033D01*
X98168071Y-90449107D01*
X99101500Y-89515679D01*
X99101500Y-89258387D01*
X98168071Y-88324958D01*
X97105996Y-89387033D01*
X96401719Y-89387033D01*
X95339644Y-88324958D01*
X94277569Y-89387033D01*
X92517088Y-89387033D01*
X92517380Y-88124839D01*
X93015376Y-88124839D01*
X93925431Y-89034894D01*
X94987506Y-87972819D01*
X95691783Y-87972819D01*
X96753858Y-89034894D01*
X97815933Y-87972819D01*
X96753858Y-86910744D01*
X95691783Y-87972819D01*
X94987506Y-87972819D01*
X93925430Y-86910743D01*
X93015447Y-87820726D01*
X93015376Y-88124839D01*
X92517380Y-88124839D01*
X92517742Y-86558605D01*
X94277569Y-86558605D01*
X95339644Y-87620680D01*
X96401718Y-86558605D01*
X97105996Y-86558605D01*
X98168071Y-87620680D01*
X99101500Y-86687251D01*
X99101500Y-86429960D01*
X98168071Y-85496531D01*
X97105996Y-86558605D01*
X96401718Y-86558605D01*
X95339644Y-85496531D01*
X94277569Y-86558605D01*
X92517742Y-86558605D01*
X92518034Y-85297067D01*
X93016031Y-85297067D01*
X93925431Y-86206467D01*
X94987506Y-85144392D01*
X95691783Y-85144392D01*
X96753858Y-86206467D01*
X97815933Y-85144392D01*
X96753858Y-84082317D01*
X95691783Y-85144392D01*
X94987506Y-85144392D01*
X93925430Y-84082316D01*
X93016102Y-84991644D01*
X93016031Y-85297067D01*
X92518034Y-85297067D01*
X92518397Y-83730178D01*
X94277569Y-83730178D01*
X95339644Y-84792253D01*
X96401718Y-83730178D01*
X97105996Y-83730178D01*
X98168071Y-84792252D01*
X99101500Y-83858824D01*
X99101500Y-83601532D01*
X98168071Y-82668103D01*
X97105996Y-83730178D01*
X96401718Y-83730178D01*
X95339644Y-82668103D01*
X94277569Y-83730178D01*
X92518397Y-83730178D01*
X92518689Y-82469295D01*
X93016686Y-82469295D01*
X93925431Y-83378040D01*
X94987506Y-82315965D01*
X95691783Y-82315965D01*
X96753858Y-83378040D01*
X97815933Y-82315965D01*
X96753858Y-81253890D01*
X95691783Y-82315965D01*
X94987506Y-82315965D01*
X93925430Y-81253889D01*
X93016758Y-82162561D01*
X93016686Y-82469295D01*
X92518689Y-82469295D01*
X92519052Y-80901751D01*
X94277569Y-80901751D01*
X95339644Y-81963826D01*
X96401719Y-80901751D01*
X96401718Y-80901750D01*
X97105996Y-80901750D01*
X98168071Y-81963825D01*
X99101500Y-81030397D01*
X99101500Y-80872171D01*
X98118537Y-79889209D01*
X97105996Y-80901750D01*
X96401718Y-80901750D01*
X95339644Y-79839676D01*
X94277569Y-80901751D01*
X92519052Y-80901751D01*
X92519343Y-79641523D01*
X93017341Y-79641523D01*
X93925431Y-80549613D01*
X94987506Y-79487538D01*
X94987505Y-79487537D01*
X95691782Y-79487537D01*
X96753857Y-80549612D01*
X97766399Y-79537071D01*
X96704324Y-78474996D01*
X95691782Y-79487537D01*
X94987505Y-79487537D01*
X93925430Y-78425462D01*
X93017413Y-79333479D01*
X93017341Y-79641523D01*
X92519343Y-79641523D01*
X92519706Y-78073324D01*
X94277569Y-78073324D01*
X95339643Y-79135398D01*
X96352184Y-78122857D01*
X96203366Y-77974039D01*
X96203334Y-77974005D01*
X96172658Y-77943327D01*
X96169355Y-77939754D01*
X96153435Y-77921117D01*
X96150419Y-77917290D01*
X96124538Y-77881669D01*
X96121834Y-77877622D01*
X96109024Y-77856722D01*
X96106644Y-77852471D01*
X96099947Y-77839328D01*
X96091283Y-77827404D01*
X96088578Y-77823355D01*
X96075767Y-77802450D01*
X96073386Y-77798198D01*
X96053397Y-77758966D01*
X96051359Y-77754544D01*
X96041981Y-77731902D01*
X96040296Y-77727337D01*
X96035738Y-77713312D01*
X96029538Y-77701143D01*
X95339644Y-77011249D01*
X94277569Y-78073324D01*
X92519706Y-78073324D01*
X92519998Y-76813751D01*
X93017996Y-76813751D01*
X93925431Y-77721186D01*
X94987506Y-76659111D01*
X93925430Y-75597035D01*
X93018068Y-76504397D01*
X93017996Y-76813751D01*
X92519998Y-76813751D01*
X92520361Y-75244897D01*
X94277569Y-75244897D01*
X95339644Y-76306972D01*
X95969913Y-75676703D01*
X95969913Y-74813091D01*
X95780822Y-74624000D01*
X94898466Y-74624000D01*
X94277569Y-75244897D01*
X92520361Y-75244897D01*
X92520649Y-74000000D01*
X96467913Y-74000000D01*
X96467913Y-77431842D01*
G37*
%TD.AperFunction*%
%TD*%
%TA.AperFunction,Conductor*%
%TO.N,GND*%
G36*
X114498396Y-34001770D02*
G01*
X114501416Y-34001918D01*
X114573337Y-34007223D01*
X114577262Y-34007609D01*
X114596038Y-34009460D01*
X114599045Y-34009830D01*
X114670752Y-34020467D01*
X114691137Y-34023491D01*
X114697098Y-34024676D01*
X114785931Y-34046927D01*
X114791750Y-34048692D01*
X114877961Y-34079539D01*
X114877970Y-34079542D01*
X114883594Y-34081871D01*
X114966382Y-34121027D01*
X114971741Y-34123891D01*
X115050281Y-34170967D01*
X115055335Y-34174343D01*
X115128892Y-34228897D01*
X115133591Y-34232753D01*
X115201448Y-34294255D01*
X115205749Y-34298556D01*
X115267245Y-34366407D01*
X115271104Y-34371110D01*
X115325652Y-34444659D01*
X115329032Y-34449718D01*
X115376105Y-34528254D01*
X115378975Y-34533624D01*
X115418127Y-34616404D01*
X115420457Y-34622029D01*
X115451309Y-34708254D01*
X115453072Y-34714065D01*
X115475321Y-34802890D01*
X115476508Y-34808860D01*
X115490167Y-34900941D01*
X115490539Y-34903957D01*
X115492777Y-34926660D01*
X115498080Y-34998564D01*
X115498229Y-35001602D01*
X115499500Y-35053324D01*
X115499500Y-64000000D01*
X115490008Y-64295426D01*
X115481148Y-64557394D01*
X115479280Y-64594190D01*
X115479072Y-64597012D01*
X115450982Y-64887638D01*
X115422962Y-65162950D01*
X115420859Y-65180630D01*
X115373085Y-65475554D01*
X115340725Y-65665155D01*
X115324708Y-65759006D01*
X115324706Y-65759016D01*
X115324029Y-65762408D01*
X115256650Y-66057028D01*
X115189232Y-66336560D01*
X115188387Y-66339698D01*
X115102175Y-66629585D01*
X115016030Y-66903900D01*
X115015049Y-66906776D01*
X114910364Y-67190645D01*
X114805859Y-67458573D01*
X114804771Y-67461185D01*
X114682030Y-67737860D01*
X114559057Y-67999398D01*
X114418178Y-68268830D01*
X114277795Y-68521497D01*
X114119910Y-68781332D01*
X113962786Y-69023920D01*
X113788549Y-69273082D01*
X113615392Y-69504500D01*
X113425526Y-69741955D01*
X113237113Y-69961164D01*
X113032407Y-70185927D01*
X112829597Y-70391921D01*
X112610891Y-70603074D01*
X112394648Y-70794877D01*
X112163890Y-70990662D01*
X112161691Y-70992443D01*
X111934105Y-71168329D01*
X111691343Y-71348834D01*
X111688860Y-71350587D01*
X111449934Y-71510678D01*
X111196192Y-71675156D01*
X111193421Y-71676851D01*
X110944295Y-71820391D01*
X110680632Y-71968178D01*
X110677569Y-71969784D01*
X110419305Y-72096169D01*
X110149811Y-72225236D01*
X110133450Y-72232238D01*
X109877308Y-72336772D01*
X109606361Y-72445748D01*
X109603716Y-72446742D01*
X109574226Y-72457068D01*
X109568924Y-72458925D01*
X109446179Y-72499582D01*
X109320103Y-72541343D01*
X109057167Y-72627943D01*
X109044442Y-72631933D01*
X109039279Y-72633553D01*
X109028058Y-72636680D01*
X108995631Y-72645718D01*
X108991464Y-72646853D01*
X108587739Y-72752453D01*
X108437681Y-72786892D01*
X108246409Y-72824744D01*
X108246396Y-72824748D01*
X108245386Y-72825137D01*
X108223730Y-72831275D01*
X107991263Y-72874853D01*
X107979900Y-72875895D01*
X107978293Y-72878146D01*
X107979093Y-72887809D01*
X107979351Y-74000000D01*
X97268913Y-74000000D01*
X97268913Y-72011342D01*
X97288598Y-71944303D01*
X97334459Y-71901984D01*
X97399038Y-71867467D01*
X97543770Y-71748688D01*
X97662549Y-71603956D01*
X97750809Y-71438832D01*
X97805160Y-71259662D01*
X97823512Y-71073331D01*
X97805160Y-70887000D01*
X97750809Y-70707830D01*
X97731554Y-70671806D01*
X97662550Y-70542707D01*
X97662548Y-70542704D01*
X97543770Y-70397973D01*
X97399039Y-70279195D01*
X97399032Y-70279191D01*
X97343385Y-70249447D01*
X97293541Y-70200485D01*
X97277838Y-70140089D01*
X97277838Y-69115437D01*
X97297523Y-69048398D01*
X97350327Y-69002643D01*
X97401838Y-68991437D01*
X97702014Y-68991437D01*
X97702015Y-68991436D01*
X97775078Y-68976903D01*
X97857939Y-68921538D01*
X97913304Y-68838677D01*
X97927838Y-68765611D01*
X97927838Y-67940937D01*
X98361755Y-67940937D01*
X98382037Y-68146869D01*
X98395405Y-68190937D01*
X98442106Y-68344891D01*
X98539653Y-68527387D01*
X98539655Y-68527389D01*
X98670927Y-68687347D01*
X98766294Y-68765611D01*
X98830888Y-68818622D01*
X99013384Y-68916169D01*
X99211404Y-68976237D01*
X99211403Y-68976237D01*
X99229867Y-68978055D01*
X99417338Y-68996520D01*
X99623272Y-68976237D01*
X99821292Y-68916169D01*
X100003788Y-68818622D01*
X100163748Y-68687347D01*
X100295023Y-68527387D01*
X100392570Y-68344891D01*
X100452638Y-68146871D01*
X100472921Y-67940937D01*
X100901755Y-67940937D01*
X100922037Y-68146869D01*
X100935405Y-68190937D01*
X100982106Y-68344891D01*
X101079653Y-68527387D01*
X101079655Y-68527389D01*
X101210927Y-68687347D01*
X101370886Y-68818621D01*
X101370888Y-68818622D01*
X101491291Y-68882979D01*
X101541136Y-68931941D01*
X101556838Y-68992337D01*
X101556838Y-70130548D01*
X101537153Y-70197587D01*
X101491291Y-70239906D01*
X101417793Y-70279191D01*
X101417786Y-70279195D01*
X101273055Y-70397973D01*
X101154277Y-70542704D01*
X101154275Y-70542707D01*
X101066017Y-70707828D01*
X101011666Y-70886997D01*
X101011665Y-70886999D01*
X100993314Y-71073331D01*
X101011665Y-71259662D01*
X101011666Y-71259664D01*
X101066017Y-71438833D01*
X101154275Y-71603954D01*
X101154277Y-71603957D01*
X101273055Y-71748688D01*
X101417786Y-71867466D01*
X101417789Y-71867468D01*
X101561539Y-71944303D01*
X101582912Y-71955727D01*
X101762079Y-72010077D01*
X101762081Y-72010078D01*
X101778787Y-72011723D01*
X101948413Y-72028430D01*
X102134744Y-72010078D01*
X102313914Y-71955727D01*
X102479038Y-71867467D01*
X102623770Y-71748688D01*
X102742549Y-71603956D01*
X102830809Y-71438832D01*
X102885160Y-71259662D01*
X102903512Y-71073331D01*
X102885160Y-70887000D01*
X102830809Y-70707830D01*
X102811554Y-70671806D01*
X102742550Y-70542707D01*
X102742548Y-70542704D01*
X102623770Y-70397973D01*
X102479039Y-70279195D01*
X102479032Y-70279191D01*
X102423385Y-70249447D01*
X102373541Y-70200485D01*
X102357838Y-70140089D01*
X102357838Y-68992337D01*
X102377523Y-68925298D01*
X102423384Y-68882979D01*
X102543788Y-68818622D01*
X102703748Y-68687347D01*
X102835023Y-68527387D01*
X102932570Y-68344891D01*
X102979271Y-68190937D01*
X103475928Y-68190937D01*
X103522571Y-68344703D01*
X103620066Y-68527103D01*
X103620070Y-68527110D01*
X103751282Y-68686992D01*
X103911164Y-68818204D01*
X103911171Y-68818208D01*
X104093571Y-68915703D01*
X104247338Y-68962347D01*
X104247338Y-68256623D01*
X104259293Y-68268578D01*
X104372190Y-68326102D01*
X104465857Y-68340937D01*
X104528819Y-68340937D01*
X104622486Y-68326102D01*
X104735383Y-68268578D01*
X104747338Y-68256623D01*
X104747338Y-68962347D01*
X104901104Y-68915703D01*
X105083504Y-68818208D01*
X105083511Y-68818204D01*
X105243393Y-68686992D01*
X105374605Y-68527110D01*
X105374609Y-68527103D01*
X105472104Y-68344703D01*
X105518748Y-68190937D01*
X104813024Y-68190937D01*
X104824979Y-68178982D01*
X104882503Y-68066085D01*
X104902324Y-67940937D01*
X104882503Y-67815789D01*
X104824979Y-67702892D01*
X104813024Y-67690937D01*
X105518748Y-67690937D01*
X105472104Y-67537170D01*
X105374609Y-67354770D01*
X105374605Y-67354763D01*
X105243393Y-67194881D01*
X105083511Y-67063669D01*
X105083504Y-67063665D01*
X104901101Y-66966169D01*
X104747338Y-66919524D01*
X104747338Y-67625251D01*
X104735383Y-67613296D01*
X104622486Y-67555772D01*
X104528819Y-67540937D01*
X104465857Y-67540937D01*
X104372190Y-67555772D01*
X104259293Y-67613296D01*
X104247338Y-67625251D01*
X104247338Y-66919524D01*
X104093574Y-66966169D01*
X103911171Y-67063665D01*
X103911164Y-67063669D01*
X103751282Y-67194881D01*
X103620070Y-67354763D01*
X103620066Y-67354770D01*
X103522571Y-67537170D01*
X103475928Y-67690937D01*
X104181652Y-67690937D01*
X104169697Y-67702892D01*
X104112173Y-67815789D01*
X104092352Y-67940937D01*
X104112173Y-68066085D01*
X104169697Y-68178982D01*
X104181652Y-68190937D01*
X103475928Y-68190937D01*
X102979271Y-68190937D01*
X102992638Y-68146871D01*
X103012921Y-67940937D01*
X102992638Y-67735003D01*
X102932570Y-67536983D01*
X102835023Y-67354487D01*
X102704039Y-67194881D01*
X102703748Y-67194526D01*
X102543790Y-67063254D01*
X102543791Y-67063254D01*
X102543788Y-67063252D01*
X102361292Y-66965705D01*
X102163272Y-66905637D01*
X102163270Y-66905636D01*
X102163272Y-66905636D01*
X101957338Y-66885354D01*
X101751405Y-66905636D01*
X101553381Y-66965706D01*
X101443236Y-67024580D01*
X101370888Y-67063252D01*
X101370886Y-67063253D01*
X101370885Y-67063254D01*
X101210927Y-67194526D01*
X101079655Y-67354484D01*
X101079653Y-67354487D01*
X101040981Y-67426835D01*
X100982107Y-67536980D01*
X100982106Y-67536982D01*
X100982106Y-67536983D01*
X100975236Y-67559629D01*
X100922037Y-67735004D01*
X100901755Y-67940937D01*
X100472921Y-67940937D01*
X100452638Y-67735003D01*
X100392570Y-67536983D01*
X100295023Y-67354487D01*
X100164039Y-67194881D01*
X100163748Y-67194526D01*
X100003790Y-67063254D01*
X100003791Y-67063254D01*
X100003788Y-67063252D01*
X99821292Y-66965705D01*
X99623272Y-66905637D01*
X99623270Y-66905636D01*
X99623272Y-66905636D01*
X99417338Y-66885354D01*
X99211405Y-66905636D01*
X99013381Y-66965706D01*
X98903236Y-67024580D01*
X98830888Y-67063252D01*
X98830886Y-67063253D01*
X98830885Y-67063254D01*
X98670927Y-67194526D01*
X98539655Y-67354484D01*
X98539653Y-67354487D01*
X98500981Y-67426835D01*
X98442107Y-67536980D01*
X98442106Y-67536982D01*
X98442106Y-67536983D01*
X98435236Y-67559629D01*
X98382037Y-67735004D01*
X98361755Y-67940937D01*
X97927838Y-67940937D01*
X97927838Y-67116263D01*
X97927838Y-67116260D01*
X97927837Y-67116258D01*
X97913305Y-67043201D01*
X97913304Y-67043197D01*
X97857939Y-66960336D01*
X97802573Y-66923342D01*
X97775077Y-66904970D01*
X97775073Y-66904969D01*
X97702015Y-66890437D01*
X97702012Y-66890437D01*
X96052664Y-66890437D01*
X96052661Y-66890437D01*
X95979602Y-66904969D01*
X95979598Y-66904970D01*
X95896737Y-66960336D01*
X95841371Y-67043197D01*
X95841370Y-67043201D01*
X95826838Y-67116258D01*
X95826838Y-68765615D01*
X95841370Y-68838672D01*
X95841371Y-68838676D01*
X95841372Y-68838677D01*
X95896737Y-68921538D01*
X95957813Y-68962347D01*
X95979598Y-68976903D01*
X95979602Y-68976904D01*
X96052659Y-68991436D01*
X96052662Y-68991437D01*
X96052664Y-68991437D01*
X96352838Y-68991437D01*
X96419877Y-69011122D01*
X96465632Y-69063926D01*
X96476838Y-69115437D01*
X96476838Y-70130548D01*
X96457153Y-70197587D01*
X96411291Y-70239906D01*
X96337793Y-70279191D01*
X96337786Y-70279195D01*
X96193055Y-70397973D01*
X96074277Y-70542704D01*
X96074275Y-70542707D01*
X95986017Y-70707828D01*
X95931666Y-70886997D01*
X95931665Y-70886999D01*
X95913314Y-71073331D01*
X95931665Y-71259662D01*
X95931666Y-71259664D01*
X95986017Y-71438833D01*
X96074275Y-71603954D01*
X96074277Y-71603957D01*
X96193055Y-71748688D01*
X96280394Y-71820365D01*
X96337788Y-71867467D01*
X96402366Y-71901984D01*
X96452210Y-71950945D01*
X96467913Y-72011342D01*
X96467913Y-74000000D01*
X92520648Y-74000000D01*
X92520905Y-72887936D01*
X92521723Y-72878172D01*
X92520158Y-72875974D01*
X92509174Y-72874930D01*
X92276263Y-72831269D01*
X92254590Y-72825124D01*
X92253608Y-72824746D01*
X92253599Y-72824743D01*
X92062310Y-72786885D01*
X91912263Y-72752448D01*
X91743415Y-72708286D01*
X91508888Y-72646945D01*
X91503763Y-72645549D01*
X91460721Y-72633552D01*
X91442780Y-72627926D01*
X91179906Y-72541346D01*
X90931076Y-72458925D01*
X90896287Y-72446745D01*
X90893638Y-72445749D01*
X90622676Y-72336766D01*
X90366550Y-72232238D01*
X90350197Y-72225240D01*
X90080558Y-72096103D01*
X89822448Y-71969795D01*
X89819386Y-71968189D01*
X89555656Y-71820365D01*
X89306565Y-71676846D01*
X89303818Y-71675165D01*
X89050014Y-71510645D01*
X88811170Y-71350610D01*
X88808688Y-71348856D01*
X88565889Y-71168326D01*
X88338314Y-70992448D01*
X88336115Y-70990667D01*
X88105331Y-70794859D01*
X87889131Y-70603097D01*
X87889107Y-70603074D01*
X87670378Y-70391898D01*
X87467602Y-70185939D01*
X87262870Y-69961146D01*
X87074477Y-69741960D01*
X86884607Y-69504500D01*
X86711450Y-69273081D01*
X86537207Y-69023911D01*
X86380088Y-68781329D01*
X86222185Y-68521465D01*
X86081853Y-68268889D01*
X86018051Y-68146869D01*
X85940922Y-67999360D01*
X85817972Y-67737867D01*
X85762709Y-67613296D01*
X85695215Y-67461156D01*
X85694143Y-67458582D01*
X85589649Y-67190684D01*
X85484937Y-66906743D01*
X85483974Y-66903918D01*
X85397822Y-66629580D01*
X85311610Y-66339694D01*
X85310767Y-66336561D01*
X85310767Y-66336560D01*
X85243371Y-66057126D01*
X85175957Y-65762351D01*
X85175302Y-65759066D01*
X85126926Y-65475628D01*
X85121147Y-65439953D01*
X85079135Y-65180598D01*
X85077037Y-65162948D01*
X85049040Y-64887873D01*
X85020925Y-64596996D01*
X85020722Y-64594233D01*
X85018852Y-64557396D01*
X85009992Y-64295426D01*
X85000500Y-64000001D01*
X85000500Y-57393930D01*
X87167919Y-57393930D01*
X87169342Y-57404740D01*
X87170002Y-57409753D01*
X87173905Y-57429376D01*
X87173904Y-57429375D01*
X87182704Y-57462215D01*
X87189148Y-57486260D01*
X87195579Y-57505206D01*
X87195579Y-57505205D01*
X87238169Y-57608027D01*
X87247016Y-57625967D01*
X87247016Y-57625966D01*
X87276463Y-57676970D01*
X87276465Y-57676973D01*
X87287578Y-57693605D01*
X87287583Y-57693611D01*
X87287584Y-57693613D01*
X87361248Y-57789613D01*
X87367585Y-57797336D01*
X87380609Y-57812188D01*
X87387448Y-57819491D01*
X89888895Y-60320937D01*
X90658181Y-61090223D01*
X90691666Y-61151546D01*
X90694500Y-61177904D01*
X90694500Y-63242822D01*
X90695235Y-63257795D01*
X90695235Y-63257796D01*
X90699567Y-63301791D01*
X90701769Y-63316636D01*
X90701769Y-63316638D01*
X90713612Y-63376182D01*
X90713618Y-63376205D01*
X90731004Y-63433521D01*
X90753251Y-63487227D01*
X90753254Y-63487234D01*
X90781480Y-63540037D01*
X90781479Y-63540037D01*
X90802741Y-63571858D01*
X90802742Y-63571859D01*
X90802747Y-63571866D01*
X90840738Y-63618157D01*
X90840741Y-63618160D01*
X90840743Y-63618162D01*
X90881835Y-63659255D01*
X90881839Y-63659258D01*
X90881842Y-63659261D01*
X90928137Y-63697254D01*
X90959958Y-63718516D01*
X91012768Y-63746745D01*
X91066481Y-63768995D01*
X91066486Y-63768996D01*
X91066487Y-63768997D01*
X91066494Y-63768999D01*
X91123798Y-63786382D01*
X91153580Y-63792306D01*
X91183361Y-63798230D01*
X91183362Y-63798230D01*
X91198205Y-63800432D01*
X91198203Y-63800432D01*
X91231404Y-63803701D01*
X91242194Y-63804764D01*
X91257175Y-63805500D01*
X91257180Y-63805500D01*
X93242820Y-63805500D01*
X93242825Y-63805500D01*
X93257806Y-63804764D01*
X93274875Y-63803082D01*
X93301794Y-63800432D01*
X93301792Y-63800432D01*
X93301794Y-63800431D01*
X93301801Y-63800431D01*
X93316638Y-63798230D01*
X93376202Y-63786382D01*
X93401402Y-63778737D01*
X93433506Y-63768999D01*
X93433511Y-63768996D01*
X93433514Y-63768996D01*
X93487229Y-63746746D01*
X93540050Y-63718511D01*
X93571869Y-63697249D01*
X93618157Y-63659261D01*
X93659261Y-63618157D01*
X93697249Y-63571869D01*
X93718511Y-63540050D01*
X93746746Y-63487229D01*
X93768996Y-63433514D01*
X93768996Y-63433511D01*
X93768999Y-63433506D01*
X93786377Y-63376217D01*
X93786382Y-63376202D01*
X93798230Y-63316638D01*
X93800431Y-63301801D01*
X93804764Y-63257806D01*
X93805500Y-63242825D01*
X93805500Y-62607727D01*
X93805499Y-62607725D01*
X93805499Y-62607710D01*
X93800126Y-62550680D01*
X93789736Y-62496018D01*
X93788143Y-62490516D01*
X93784144Y-62470850D01*
X93780443Y-62440023D01*
X93780000Y-62432626D01*
X93780000Y-61792374D01*
X93780442Y-61784977D01*
X93784141Y-61754169D01*
X93788145Y-61734479D01*
X93789742Y-61728964D01*
X93800129Y-61674306D01*
X93805500Y-61617271D01*
X93805500Y-61429500D01*
X93825185Y-61362461D01*
X93877989Y-61316706D01*
X93929500Y-61305500D01*
X94574406Y-61305500D01*
X94641445Y-61325185D01*
X94687200Y-61377989D01*
X94698023Y-61419767D01*
X94698260Y-61422770D01*
X94698261Y-61422780D01*
X94712923Y-61515359D01*
X94724116Y-61561981D01*
X94738522Y-61606316D01*
X94739324Y-61608253D01*
X94756865Y-61650599D01*
X94756865Y-61650600D01*
X94788708Y-61713095D01*
X94788708Y-61713094D01*
X94813751Y-61753961D01*
X94841145Y-61791666D01*
X94841146Y-61791667D01*
X94841150Y-61791672D01*
X94872285Y-61828127D01*
X94921872Y-61877714D01*
X94921874Y-61877716D01*
X94958332Y-61908853D01*
X94958333Y-61908854D01*
X94996038Y-61936248D01*
X95036905Y-61961291D01*
X95036904Y-61961291D01*
X95036911Y-61961294D01*
X95036915Y-61961297D01*
X95099399Y-61993134D01*
X95099404Y-61993136D01*
X95143676Y-62011475D01*
X95143677Y-62011475D01*
X95143687Y-62011479D01*
X95188021Y-62025884D01*
X95188019Y-62025884D01*
X95211326Y-62031479D01*
X95234632Y-62037074D01*
X95321551Y-62050842D01*
X95325336Y-62051289D01*
X95333467Y-62052253D01*
X95368736Y-62055029D01*
X95380728Y-62055500D01*
X95380729Y-62055500D01*
X97869272Y-62055500D01*
X97881264Y-62055029D01*
X97916533Y-62052253D01*
X97924663Y-62051289D01*
X97928449Y-62050842D01*
X98015367Y-62037074D01*
X98038672Y-62031479D01*
X98061980Y-62025884D01*
X98061978Y-62025884D01*
X98106312Y-62011479D01*
X98106322Y-62011475D01*
X98106323Y-62011475D01*
X98150595Y-61993136D01*
X98150594Y-61993136D01*
X98150600Y-61993134D01*
X98213084Y-61961297D01*
X98213087Y-61961294D01*
X98213095Y-61961291D01*
X98213094Y-61961291D01*
X98253961Y-61936248D01*
X98291666Y-61908854D01*
X98291667Y-61908853D01*
X98328125Y-61877716D01*
X98328127Y-61877714D01*
X98377714Y-61828127D01*
X98408849Y-61791672D01*
X98408853Y-61791667D01*
X98408854Y-61791666D01*
X98436248Y-61753961D01*
X98461291Y-61713094D01*
X98461291Y-61713095D01*
X98481055Y-61674306D01*
X98493134Y-61650600D01*
X98495213Y-61645578D01*
X98511475Y-61606323D01*
X98511475Y-61606322D01*
X98511476Y-61606319D01*
X98511479Y-61606312D01*
X98525884Y-61561978D01*
X98525884Y-61561980D01*
X98537074Y-61515365D01*
X98548342Y-61444229D01*
X98550842Y-61428449D01*
X98551514Y-61422770D01*
X98552253Y-61416533D01*
X98555029Y-61381264D01*
X98555500Y-61369272D01*
X98555500Y-61234793D01*
X98575185Y-61167754D01*
X98627989Y-61121999D01*
X98697147Y-61112055D01*
X98758165Y-61138940D01*
X98791454Y-61166260D01*
X98830888Y-61198622D01*
X99013384Y-61296169D01*
X99211404Y-61356237D01*
X99211403Y-61356237D01*
X99225953Y-61357670D01*
X99417338Y-61376520D01*
X99623272Y-61356237D01*
X99821292Y-61296169D01*
X100003788Y-61198622D01*
X100163748Y-61067347D01*
X100295023Y-60907387D01*
X100392570Y-60724891D01*
X100452638Y-60526871D01*
X100472921Y-60320937D01*
X100901755Y-60320937D01*
X100922037Y-60526869D01*
X100938945Y-60582607D01*
X100982106Y-60724891D01*
X101079653Y-60907387D01*
X101114307Y-60949614D01*
X101210927Y-61067347D01*
X101298165Y-61138940D01*
X101370888Y-61198622D01*
X101553384Y-61296169D01*
X101751404Y-61356237D01*
X101751403Y-61356237D01*
X101765953Y-61357670D01*
X101957338Y-61376520D01*
X102163272Y-61356237D01*
X102361292Y-61296169D01*
X102543788Y-61198622D01*
X102703748Y-61067347D01*
X102835023Y-60907387D01*
X102932570Y-60724891D01*
X102992638Y-60526871D01*
X103012921Y-60320937D01*
X103441755Y-60320937D01*
X103462037Y-60526869D01*
X103478945Y-60582607D01*
X103522106Y-60724891D01*
X103619653Y-60907387D01*
X103654307Y-60949614D01*
X103750927Y-61067347D01*
X103838165Y-61138940D01*
X103910888Y-61198622D01*
X104093384Y-61296169D01*
X104291404Y-61356237D01*
X104291403Y-61356237D01*
X104305953Y-61357670D01*
X104497338Y-61376520D01*
X104703272Y-61356237D01*
X104901292Y-61296169D01*
X105083788Y-61198622D01*
X105243748Y-61067347D01*
X105375023Y-60907387D01*
X105452744Y-60761983D01*
X105501707Y-60712139D01*
X105562102Y-60696437D01*
X106614038Y-60696437D01*
X106681077Y-60716122D01*
X106701719Y-60732756D01*
X107197849Y-61228886D01*
X107213977Y-61248745D01*
X107219916Y-61257836D01*
X107247932Y-61279641D01*
X107253693Y-61284730D01*
X107256482Y-61287519D01*
X107275483Y-61301085D01*
X107317256Y-61333599D01*
X107318811Y-61334809D01*
X107325704Y-61338539D01*
X107332796Y-61342006D01*
X107332801Y-61342010D01*
X107380590Y-61356237D01*
X107385403Y-61357670D01*
X107437338Y-61375500D01*
X107445072Y-61376790D01*
X107452910Y-61377767D01*
X107452912Y-61377768D01*
X107452913Y-61377767D01*
X107452914Y-61377768D01*
X107507756Y-61375500D01*
X107559959Y-61375500D01*
X107626998Y-61395185D01*
X107670959Y-61444229D01*
X107752632Y-61608253D01*
X107802515Y-61674308D01*
X107881128Y-61778407D01*
X108038698Y-61922052D01*
X108219981Y-62034298D01*
X108418802Y-62111321D01*
X108628390Y-62150500D01*
X108628392Y-62150500D01*
X108841608Y-62150500D01*
X108841610Y-62150500D01*
X109051198Y-62111321D01*
X109250019Y-62034298D01*
X109431302Y-61922052D01*
X109588872Y-61778407D01*
X109717366Y-61608255D01*
X109718331Y-61606318D01*
X109812403Y-61417394D01*
X109812403Y-61417393D01*
X109812405Y-61417389D01*
X109870756Y-61212310D01*
X109890429Y-61000000D01*
X109870756Y-60787690D01*
X109860032Y-60750000D01*
X110225000Y-60750000D01*
X110899722Y-60750000D01*
X110851375Y-60833740D01*
X110821190Y-60965992D01*
X110831327Y-61101265D01*
X110880887Y-61227541D01*
X110898797Y-61250000D01*
X110225001Y-61250000D01*
X110225001Y-61914772D01*
X110233703Y-61958526D01*
X110233704Y-61958529D01*
X110266856Y-62008143D01*
X110316473Y-62041296D01*
X110316477Y-62041298D01*
X110360221Y-62049999D01*
X111024999Y-62049999D01*
X111025000Y-62049998D01*
X111025000Y-61374189D01*
X111077547Y-61410016D01*
X111207173Y-61450000D01*
X111308724Y-61450000D01*
X111409138Y-61434865D01*
X111525000Y-61379068D01*
X111525000Y-62049999D01*
X112189772Y-62049999D01*
X112233526Y-62041296D01*
X112233529Y-62041295D01*
X112283143Y-62008143D01*
X112316296Y-61958526D01*
X112316298Y-61958522D01*
X112324999Y-61914779D01*
X112325000Y-61914777D01*
X112325000Y-61250000D01*
X111650278Y-61250000D01*
X111698625Y-61166260D01*
X111728810Y-61034008D01*
X111718673Y-60898735D01*
X111669113Y-60772459D01*
X111651203Y-60750000D01*
X112324999Y-60750000D01*
X112324999Y-60085227D01*
X112316296Y-60041473D01*
X112316295Y-60041470D01*
X112283143Y-59991856D01*
X112233526Y-59958703D01*
X112233522Y-59958701D01*
X112189778Y-59950000D01*
X111525000Y-59950000D01*
X111525000Y-60625810D01*
X111472453Y-60589984D01*
X111342827Y-60550000D01*
X111241276Y-60550000D01*
X111140862Y-60565135D01*
X111025000Y-60620931D01*
X111025000Y-59950000D01*
X110360228Y-59950000D01*
X110316472Y-59958703D01*
X110316470Y-59958704D01*
X110266856Y-59991856D01*
X110233703Y-60041473D01*
X110233701Y-60041477D01*
X110225000Y-60085220D01*
X110225000Y-60750000D01*
X109860032Y-60750000D01*
X109812405Y-60582611D01*
X109812403Y-60582606D01*
X109812403Y-60582605D01*
X109717367Y-60391746D01*
X109588872Y-60221593D01*
X109471950Y-60115004D01*
X109431302Y-60077948D01*
X109250019Y-59965702D01*
X109250017Y-59965701D01*
X109124252Y-59916980D01*
X109051198Y-59888679D01*
X108841610Y-59849500D01*
X108628390Y-59849500D01*
X108418802Y-59888679D01*
X108418799Y-59888679D01*
X108418799Y-59888680D01*
X108219982Y-59965701D01*
X108219980Y-59965702D01*
X108038699Y-60077947D01*
X107881127Y-60221593D01*
X107752632Y-60391746D01*
X107719804Y-60457676D01*
X107672301Y-60508914D01*
X107604639Y-60526335D01*
X107538298Y-60504410D01*
X107521123Y-60490086D01*
X107351974Y-60320937D01*
X107123086Y-60092048D01*
X107106959Y-60072189D01*
X107101023Y-60063104D01*
X107101020Y-60063100D01*
X107086060Y-60051456D01*
X107073009Y-60041298D01*
X107067247Y-60036209D01*
X107064452Y-60033414D01*
X107045442Y-60019843D01*
X107002126Y-59986127D01*
X106995211Y-59982385D01*
X106988137Y-59978927D01*
X106935533Y-59963266D01*
X106883595Y-59945436D01*
X106875860Y-59944145D01*
X106868022Y-59943168D01*
X106813181Y-59945437D01*
X105562102Y-59945437D01*
X105495063Y-59925752D01*
X105452744Y-59879891D01*
X105436499Y-59849500D01*
X105375023Y-59734487D01*
X105323040Y-59671146D01*
X105243748Y-59574526D01*
X105083790Y-59443254D01*
X105083791Y-59443254D01*
X105083788Y-59443252D01*
X104901292Y-59345705D01*
X104703272Y-59285637D01*
X104703270Y-59285636D01*
X104703272Y-59285636D01*
X104497338Y-59265354D01*
X104291405Y-59285636D01*
X104093381Y-59345706D01*
X103983236Y-59404580D01*
X103910888Y-59443252D01*
X103910886Y-59443253D01*
X103910885Y-59443254D01*
X103750927Y-59574526D01*
X103619655Y-59734484D01*
X103522107Y-59916980D01*
X103462037Y-60115004D01*
X103441755Y-60320937D01*
X103012921Y-60320937D01*
X102992638Y-60115003D01*
X102932570Y-59916983D01*
X102835023Y-59734487D01*
X102783040Y-59671146D01*
X102703748Y-59574526D01*
X102543790Y-59443254D01*
X102543791Y-59443254D01*
X102543788Y-59443252D01*
X102361292Y-59345705D01*
X102163272Y-59285637D01*
X102163270Y-59285636D01*
X102163272Y-59285636D01*
X101957338Y-59265354D01*
X101751405Y-59285636D01*
X101553381Y-59345706D01*
X101443236Y-59404580D01*
X101370888Y-59443252D01*
X101370886Y-59443253D01*
X101370885Y-59443254D01*
X101210927Y-59574526D01*
X101079655Y-59734484D01*
X100982107Y-59916980D01*
X100922037Y-60115004D01*
X100901755Y-60320937D01*
X100472921Y-60320937D01*
X100452638Y-60115003D01*
X100392570Y-59916983D01*
X100295023Y-59734487D01*
X100243040Y-59671146D01*
X100163748Y-59574526D01*
X100003790Y-59443254D01*
X100003791Y-59443254D01*
X100003788Y-59443252D01*
X99821292Y-59345705D01*
X99623272Y-59285637D01*
X99623270Y-59285636D01*
X99623272Y-59285636D01*
X99417338Y-59265354D01*
X99211405Y-59285636D01*
X99013381Y-59345706D01*
X98903236Y-59404580D01*
X98830888Y-59443252D01*
X98830886Y-59443253D01*
X98830885Y-59443254D01*
X98758164Y-59502934D01*
X98693854Y-59530246D01*
X98624987Y-59518455D01*
X98573427Y-59471302D01*
X98555500Y-59407080D01*
X98555500Y-59130727D01*
X98555029Y-59118735D01*
X98552253Y-59083466D01*
X98550842Y-59071553D01*
X98537074Y-58984634D01*
X98525884Y-58938021D01*
X98511479Y-58893687D01*
X98511475Y-58893677D01*
X98511475Y-58893676D01*
X98493136Y-58849404D01*
X98493134Y-58849399D01*
X98461297Y-58786915D01*
X98461294Y-58786911D01*
X98461291Y-58786904D01*
X98461291Y-58786905D01*
X98436248Y-58746038D01*
X98408854Y-58708333D01*
X98408853Y-58708332D01*
X98377716Y-58671874D01*
X98377714Y-58671872D01*
X98328127Y-58622285D01*
X98291672Y-58591150D01*
X98291669Y-58591148D01*
X98291667Y-58591146D01*
X98291666Y-58591145D01*
X98253961Y-58563751D01*
X98213094Y-58538708D01*
X98213095Y-58538708D01*
X98213087Y-58538704D01*
X98213084Y-58538702D01*
X98150600Y-58506865D01*
X98106318Y-58488523D01*
X98106319Y-58488523D01*
X98106316Y-58488522D01*
X98061981Y-58474116D01*
X98015363Y-58462923D01*
X97948594Y-58452347D01*
X97928444Y-58449156D01*
X97916526Y-58447746D01*
X97881254Y-58444971D01*
X97869268Y-58444500D01*
X95927904Y-58444500D01*
X95860865Y-58424815D01*
X95840223Y-58408181D01*
X91319491Y-53887448D01*
X91312188Y-53880609D01*
X91297336Y-53867585D01*
X91289613Y-53861248D01*
X91193605Y-53787578D01*
X91193602Y-53787576D01*
X91193603Y-53787576D01*
X91176978Y-53776467D01*
X91176977Y-53776467D01*
X91176976Y-53776466D01*
X91125969Y-53747017D01*
X91125970Y-53747017D01*
X91108028Y-53738169D01*
X91005196Y-53695575D01*
X91005197Y-53695575D01*
X90992686Y-53691328D01*
X90986258Y-53689147D01*
X90986256Y-53689146D01*
X90950190Y-53679482D01*
X90929370Y-53673904D01*
X90929368Y-53673903D01*
X90929367Y-53673903D01*
X90909763Y-53670004D01*
X90909764Y-53670004D01*
X90909755Y-53670002D01*
X90909751Y-53670002D01*
X90799403Y-53655475D01*
X90779445Y-53654167D01*
X90720554Y-53654167D01*
X90700595Y-53655475D01*
X90590246Y-53670003D01*
X90590237Y-53670004D01*
X90570627Y-53673905D01*
X90544234Y-53680976D01*
X90513748Y-53689145D01*
X90513742Y-53689147D01*
X90513740Y-53689147D01*
X90494809Y-53695573D01*
X90494810Y-53695572D01*
X90391961Y-53738174D01*
X90374032Y-53747016D01*
X90374031Y-53747017D01*
X90323031Y-53776461D01*
X90323026Y-53776464D01*
X90323027Y-53776464D01*
X90306399Y-53787574D01*
X90210383Y-53861250D01*
X90202666Y-53867583D01*
X90187826Y-53880595D01*
X90180518Y-53887439D01*
X87387446Y-56680511D01*
X87380613Y-56687806D01*
X87367610Y-56702632D01*
X87361263Y-56710366D01*
X87343633Y-56733341D01*
X87303761Y-56802403D01*
X87303759Y-56802406D01*
X87303757Y-56802411D01*
X87274244Y-56873665D01*
X87274241Y-56873673D01*
X87253608Y-56950680D01*
X87253605Y-56950693D01*
X87240823Y-57047773D01*
X87232446Y-57079035D01*
X87198624Y-57160693D01*
X87198622Y-57160699D01*
X87178611Y-57235390D01*
X87177980Y-57237742D01*
X87177980Y-57237743D01*
X87176906Y-57245911D01*
X87176157Y-57251609D01*
X87167919Y-57314201D01*
X87167919Y-57314204D01*
X87167919Y-57314205D01*
X87167919Y-57393930D01*
X85000500Y-57393930D01*
X85000500Y-42996772D01*
X103517055Y-42996772D01*
X103517921Y-43008323D01*
X103517922Y-43008330D01*
X103576285Y-43264042D01*
X103672110Y-43508198D01*
X103672109Y-43508198D01*
X103803255Y-43735345D01*
X103966789Y-43940411D01*
X103966797Y-43940420D01*
X104159057Y-44118812D01*
X104159059Y-44118813D01*
X104375773Y-44266565D01*
X104375777Y-44266567D01*
X104612081Y-44380366D01*
X104612085Y-44380367D01*
X104862721Y-44457679D01*
X104862729Y-44457681D01*
X105003227Y-44478857D01*
X105003227Y-43458297D01*
X105165565Y-43496772D01*
X105296911Y-43496772D01*
X105427366Y-43481524D01*
X105503227Y-43453912D01*
X105503227Y-44478856D01*
X105643724Y-44457681D01*
X105643732Y-44457679D01*
X105894370Y-44380367D01*
X106130672Y-44266570D01*
X106130681Y-44266565D01*
X106347394Y-44118813D01*
X106347396Y-44118812D01*
X106539656Y-43940420D01*
X106539664Y-43940411D01*
X106703198Y-43735345D01*
X106834343Y-43508198D01*
X106930168Y-43264042D01*
X106988531Y-43008330D01*
X106988532Y-43008323D01*
X106989399Y-42996772D01*
X105961271Y-42996772D01*
X105996861Y-42877895D01*
X106007055Y-42702866D01*
X105976611Y-42530205D01*
X105962189Y-42496772D01*
X106989398Y-42496772D01*
X106988532Y-42485220D01*
X106988531Y-42485213D01*
X106930168Y-42229501D01*
X106834343Y-41985345D01*
X106834344Y-41985345D01*
X106703198Y-41758198D01*
X106539664Y-41553132D01*
X106539656Y-41553123D01*
X106347396Y-41374731D01*
X106347394Y-41374730D01*
X106130681Y-41226978D01*
X106130672Y-41226973D01*
X105894369Y-41113176D01*
X105894371Y-41113176D01*
X105643739Y-41035866D01*
X105643733Y-41035865D01*
X105503227Y-41014686D01*
X105503227Y-42035246D01*
X105340889Y-41996772D01*
X105209543Y-41996772D01*
X105079088Y-42012020D01*
X105003227Y-42039631D01*
X105003227Y-41014686D01*
X104862720Y-41035865D01*
X104862714Y-41035866D01*
X104612085Y-41113176D01*
X104612081Y-41113177D01*
X104375777Y-41226976D01*
X104375773Y-41226978D01*
X104159059Y-41374730D01*
X104159057Y-41374731D01*
X103966797Y-41553123D01*
X103966789Y-41553132D01*
X103803255Y-41758198D01*
X103672110Y-41985345D01*
X103576285Y-42229501D01*
X103517922Y-42485213D01*
X103517921Y-42485220D01*
X103517055Y-42496772D01*
X104545183Y-42496772D01*
X104509593Y-42615649D01*
X104499399Y-42790678D01*
X104529843Y-42963339D01*
X104544265Y-42996772D01*
X103517055Y-42996772D01*
X85000500Y-42996772D01*
X85000500Y-35053325D01*
X85001770Y-35001603D01*
X85001919Y-34998564D01*
X85007223Y-34926663D01*
X85009460Y-34903957D01*
X85009832Y-34900942D01*
X85009833Y-34900941D01*
X85023491Y-34808860D01*
X85024675Y-34802905D01*
X85046927Y-34714068D01*
X85048693Y-34708249D01*
X85079542Y-34622029D01*
X85081872Y-34616404D01*
X85121024Y-34533624D01*
X85123882Y-34528274D01*
X85170975Y-34449705D01*
X85174343Y-34444664D01*
X85228903Y-34371098D01*
X85232739Y-34366424D01*
X85294265Y-34298540D01*
X85298550Y-34294256D01*
X85366417Y-34232745D01*
X85371097Y-34228904D01*
X85444673Y-34174337D01*
X85449705Y-34170975D01*
X85528274Y-34123882D01*
X85533609Y-34121031D01*
X85616421Y-34081864D01*
X85622011Y-34079548D01*
X85708248Y-34048692D01*
X85714053Y-34046931D01*
X85802917Y-34024672D01*
X85808856Y-34023491D01*
X85900959Y-34009829D01*
X85903935Y-34009462D01*
X85926663Y-34007223D01*
X85998585Y-34001917D01*
X86001603Y-34001770D01*
X86053325Y-34000500D01*
X114446675Y-34000500D01*
X114498396Y-34001770D01*
G37*
%TD.AperFunction*%
%TD*%
M02*
